<svg width="326" height="251" viewBox="0 0 326 251" fill="none" xmlns="http://www.w3.org/2000/svg">
<path d="M189.332 69.7708L182.812 66.3368L183.3 66.0796L189.82 69.5139L189.332 69.7708Z" fill="#CBCBCB"/>
<path d="M183.644 69.7708L183.156 69.5139L189.675 66.0796L190.163 66.3368L183.644 69.7708Z" fill="#CBCBCB"/>
<path d="M135.119 43.1524L134.805 43.7612L136.646 44.6971L136.961 44.0882L135.119 43.1524Z" fill="#CBCBCB"/>
<path d="M173.303 63.3245L169.638 61.4618L169.952 60.8529L173.618 62.7156L173.303 63.3245ZM165.972 59.5991L162.306 57.7362L162.621 57.1274L166.287 58.9902L165.972 59.5991ZM158.641 55.8735L154.975 54.0109L155.29 53.402L158.955 55.2647L158.641 55.8735ZM151.309 52.1481L147.644 50.2854L147.958 49.6766L151.624 51.5392L151.309 52.1481ZM143.978 48.4227L140.312 46.56L140.627 45.9512L144.293 47.8139L143.978 48.4227Z" fill="#CBCBCB"/>
<path d="M177.283 64.5782L176.969 65.187L178.81 66.1229L179.125 65.514L177.283 64.5782Z" fill="#CBCBCB"/>
<path d="M38.2303 88.9458C38.2303 89.1595 38.2233 89.3713 38.2094 89.5814C38.1311 90.7931 37.8224 91.9792 37.2996 93.0771C37.2955 93.0865 37.2908 93.0952 37.2867 93.104C37.2624 93.1549 37.2374 93.2058 37.2117 93.256C37.0562 93.5665 36.8837 93.8684 36.695 94.1602C35.833 95.5 34.6514 96.6086 33.2547 97.388C31.8581 98.1674 30.2893 98.5937 28.687 98.6291L28.7836 104.138L30.0433 103.48L30.2683 103.904L28.7931 104.674L28.9734 114.905L28.9755 115.041L28.0015 115.256L28.0035 115.119L28.3102 98.6298C27.0205 98.6115 25.7474 98.3392 24.5647 97.8289C23.382 97.3187 22.3133 96.5805 21.4207 95.6572C21.3592 95.5943 21.2984 95.5293 21.239 95.465L21.2322 95.4576C20.4885 94.6533 19.887 93.7303 19.4531 92.7275C19.4626 92.7382 19.4727 92.7483 19.4822 92.759C18.5016 90.485 18.4351 87.9252 19.2963 85.6042C20.1575 83.2831 21.8813 81.3766 24.1143 80.2752C24.1481 80.2585 24.1826 80.2424 24.2163 80.2256C26.4252 79.1706 28.9532 78.977 31.2993 79.6832C33.6453 80.3895 35.6382 81.9441 36.8828 84.0388C36.9423 84.138 36.9997 84.2391 37.0551 84.3409C37.8282 85.7546 38.2322 87.3376 38.2303 88.9458V88.9458Z" fill="#E5E5E5"/>
<path d="M36.9155 93.1091C43.9859 93.1091 49.7177 87.4251 49.7177 80.4137C49.7177 73.4022 43.9859 67.7183 36.9155 67.7183C29.845 67.7183 24.1133 73.4022 24.1133 80.4137C24.1133 87.4251 29.845 93.1091 36.9155 93.1091Z" fill="#E5E5E5"/>
<path opacity="0.2" d="M27.4627 71.9346C26.2685 74.7046 26.1065 77.8055 27.0056 80.6831C27.9047 83.5607 29.8064 86.0274 32.3707 87.6426C34.9351 89.2578 37.995 89.9162 41.0038 89.5C44.0126 89.0839 46.7741 87.6204 48.7949 85.371C48.0654 87.0634 46.9736 88.5782 45.5952 89.8106C44.2167 91.043 42.5845 91.9635 40.8117 92.5083C39.0388 93.053 37.1678 93.2091 35.3281 92.9656C33.4885 92.7221 31.7242 92.0848 30.1575 91.0981C28.5908 90.1113 27.2592 88.7985 26.255 87.2507C25.2507 85.7029 24.5978 83.9571 24.3415 82.1343C24.0851 80.3114 24.2315 78.4551 24.7704 76.6939C25.3094 74.9327 26.228 73.3087 27.4627 71.9346V71.9346Z" fill="#252525"/>
<path d="M37.6083 115.781L36.3008 115.417L36.3035 115.278L36.6953 94.1604L36.7149 93.1074L36.7153 93.0767L36.7839 89.3871L36.883 84.0396V84.0388L36.9504 80.4141H36.9865L37.0554 84.3411L37.1451 89.4524L37.2094 93.0791V93.1059L37.2121 93.2555V93.2562L37.3363 100.326L37.3493 101.028L37.6059 115.64L37.6083 115.781Z" fill="#252525"/>
<path d="M38.9873 99.464L36.8711 100.569L37.166 101.124L39.2823 100.019L38.9873 99.464Z" fill="#252525"/>
<path d="M202.869 39.3273C186.711 38.38 170.503 38.6271 154.382 40.0665C146.611 40.763 138.718 41.5153 131.091 43.1961C124.948 44.5499 117.818 46.8381 113.99 52.1677C113.189 53.2416 112.649 54.4848 112.412 55.8001C112.175 57.1154 112.249 58.4672 112.627 59.7496C113.539 62.7878 115.81 65.3168 118.228 67.2975C123.792 71.8564 130.697 74.5093 136.864 78.1311C148.125 84.744 158.431 93.6573 165.046 104.98C167.957 109.962 170.726 116.587 167.484 122.077C164.309 127.456 157.221 129.309 151.44 130.183C144.194 131.278 136.731 130.981 129.455 130.368C121.478 129.63 113.546 128.478 105.691 126.916C90.3025 123.986 75.0542 120.258 59.4519 118.563C51.6288 117.651 43.7398 117.425 35.8766 117.887C28.7752 118.362 21.6131 119.476 14.9419 122.016C9.80112 123.972 4.32136 126.933 1.54453 131.87C-1.1322 136.629 -0.0881885 142.117 2.82644 146.508C6.33334 151.792 11.8018 155.412 17.4873 158.058C23.9607 161.071 30.8846 163.024 37.8173 164.685C41.3334 165.527 44.8685 166.288 48.404 167.046C49.1415 167.204 49.4566 166.081 48.7164 165.922C41.5869 164.394 34.4368 162.862 27.4843 160.65C21.0506 158.604 14.4665 155.982 9.19781 151.685C4.93544 148.208 0.882807 143.13 1.13439 137.357C1.38801 131.537 6.31235 127.473 11.1389 124.972C17.1707 121.846 24.0237 120.323 30.7388 119.527C38.4277 118.678 46.1819 118.573 53.8913 119.215C69.4567 120.389 84.6744 123.906 99.9358 126.972C114.762 129.952 130.051 132.711 145.245 131.947C151.267 131.644 157.72 130.788 163.037 127.774C165.472 126.393 167.667 124.447 168.904 121.914C170.019 119.504 170.371 116.816 169.915 114.204C169.053 108.465 165.616 103.143 162.186 98.5723C158.427 93.6145 154.066 89.1347 149.202 85.2343C143.864 80.9741 138.108 77.2558 132.021 74.1354C128.793 72.4501 125.519 70.8296 122.443 68.8776C119.494 67.006 116.584 64.7541 114.783 61.7158C113.225 59.088 112.94 56.0888 114.562 53.4236C116.203 50.7279 119.031 48.8478 121.819 47.474C128.537 44.1638 136.348 43.2778 143.698 42.3699C159.48 40.4271 175.385 39.6407 191.284 40.017C195.148 40.1072 199.01 40.2658 202.869 40.493C203.625 40.537 203.622 39.3713 202.869 39.3273V39.3273Z" fill="#252525"/>
<path d="M192.62 1.96298L195.061 0.0271115C193.165 -0.18034 192.385 0.845145 192.067 1.65682C190.585 1.04685 188.973 1.84625 188.973 1.84625L193.856 3.60436C193.61 2.9518 193.181 2.38242 192.62 1.96298V1.96298Z" fill="#252525"/>
<path d="M180.772 8.09139L183.213 6.15553C181.317 5.94808 180.538 6.97356 180.219 7.78523C178.738 7.17526 177.125 7.97467 177.125 7.97467L182.009 9.73277C181.762 9.08022 181.333 8.51084 180.772 8.09139V8.09139Z" fill="#252525"/>
<path d="M192.62 17.795L195.061 15.8591C193.165 15.6517 192.385 16.6772 192.067 17.4888C190.585 16.8789 188.973 17.6783 188.973 17.6783L193.856 19.4364C193.61 18.7838 193.181 18.2144 192.62 17.795V17.795Z" fill="#252525"/>
<path d="M156.03 20.6634C160.091 20.6634 163.383 17.3985 163.383 13.371C163.383 9.34353 160.091 6.07861 156.03 6.07861C151.968 6.07861 148.676 9.34353 148.676 13.371C148.676 17.3985 151.968 20.6634 156.03 20.6634Z" fill="#FF6583"/>
<path d="M179.089 35.8421H143.014C142.969 35.8426 142.923 35.8391 142.879 35.8315L159.941 6.52577C160.045 6.34322 160.197 6.19135 160.379 6.08567C160.562 5.98 160.77 5.92432 160.981 5.92432C161.192 5.92432 161.4 5.98 161.583 6.08567C161.766 6.19135 161.917 6.34322 162.021 6.52577L173.471 26.1915L174.019 27.1324L179.089 35.8421Z" fill="#5A5657"/>
<path d="M199.174 35.8426H167.973L174.019 27.1336L174.453 26.5061L182.332 15.1567C182.471 14.9831 182.646 14.8404 182.845 14.7381C183.043 14.6358 183.261 14.5761 183.485 14.5629C183.708 14.5496 183.932 14.5832 184.141 14.6614C184.351 14.7395 184.541 14.8605 184.7 15.0165C184.741 15.0608 184.779 15.1076 184.814 15.1567L199.174 35.8426Z" fill="#343031"/>
<path d="M147.702 103.056C151.122 104.75 153.204 106.989 153.204 109.444C153.204 114.733 143.553 119.02 131.648 119.02C126.472 119.02 121.724 118.209 118.008 116.858C121.955 118.815 127.684 120.046 134.062 120.046C145.967 120.046 155.618 115.759 155.618 110.47C155.618 107.481 152.533 104.812 147.702 103.056Z" fill="#F1F1F1"/>
<path d="M155.311 106.688C159.17 108.601 161.519 111.127 161.519 113.897C161.519 119.865 150.629 124.703 137.196 124.703C131.356 124.703 125.998 123.788 121.805 122.263C126.258 124.471 132.723 125.861 139.92 125.861C153.353 125.861 164.243 121.023 164.243 115.055C164.243 111.682 160.762 108.67 155.311 106.688Z" fill="#F1F1F1"/>
<path d="M144.792 104.656C147.201 105.85 148.667 107.427 148.667 109.157C148.667 112.883 141.868 115.903 133.481 115.903C130.213 115.945 126.963 115.43 123.871 114.38C126.652 115.758 130.688 116.626 135.182 116.626C143.569 116.626 150.368 113.606 150.368 109.879C150.368 107.773 148.195 105.893 144.792 104.656Z" fill="#F1F1F1"/>
<path d="M110.945 103.972C110.945 103.972 111.475 111.645 126.65 111.645C141.825 111.645 146.356 103.972 146.356 103.972H110.945Z" fill="#252525"/>
<path d="M132.483 83.8391C130.293 82.1887 127.543 81.4428 124.81 81.7576C127.252 82.3415 129.409 83.7597 130.902 85.7633C132.395 87.767 133.128 90.228 132.974 92.7145C132.82 95.2011 131.787 97.5542 130.057 99.361C128.328 101.168 126.012 102.313 123.516 102.595C125.903 103.166 128.416 102.905 130.633 101.856C132.849 100.806 134.633 99.0315 135.685 96.8308C136.738 94.63 136.994 92.1371 136.411 89.7711C135.827 87.4051 134.441 85.3104 132.483 83.8391V83.8391Z" fill="#252525"/>
<path d="M127.511 80.373H126.477V104.796H127.511V80.373Z" fill="#252525"/>
<path d="M195.508 62.2265L195.502 62.217L195.488 61.6205L198.729 56.9535L195.492 61.1739L195.48 61.3L195.37 56.5299L198.169 51.6913L195.362 55.6919L195.391 45.8093L195.391 45.7764L195.39 45.8087L195.204 53.5975L192.652 50.4337L195.196 54.2685L195.14 58.5354L192.792 54.3711L195.131 59.1627L195.1 61.5352L195.015 68.1083L195.008 68.5995C195.225 68.6011 195.439 68.5976 195.65 68.5888L195.504 62.2752L195.508 62.2265Z" fill="#CBCBCB"/>
<path d="M179.988 64.2787L179.983 64.2693L179.969 63.6727L183.21 59.0058L179.972 63.2262L179.961 63.3523L179.85 58.5821L182.65 53.7436L179.842 57.7441L179.871 47.8615L179.871 47.8286L179.87 47.861L179.684 55.6498L177.133 52.486L179.676 56.3208L179.62 60.5876L177.272 56.4234L179.612 61.2149L179.581 63.5875L179.495 70.1606L179.489 70.6517C179.705 70.6534 179.919 70.6498 180.131 70.641L179.984 64.3274L179.988 64.2787Z" fill="#CBCBCB"/>
<path d="M187.578 57.7801L187.572 57.7707L187.558 57.1742L190.8 52.5072L187.562 56.7276L187.551 56.8537L187.44 52.0836L190.24 47.245L187.432 51.2456L187.461 41.363L187.461 41.3301L187.46 41.3624L187.274 49.1512L184.723 45.9874L187.266 49.8222L187.21 54.089L184.862 49.9248L187.202 54.7163L187.171 57.0889L187.085 63.662L187.079 64.1532C187.295 64.1548 187.509 64.1512 187.721 64.1425L187.574 57.8289L187.578 57.7801Z" fill="#CBCBCB"/>
<path d="M59.3965 171.348C61.6822 171.348 63.5352 169.511 63.5352 167.244C63.5352 164.978 61.6822 163.14 59.3965 163.14C57.1108 163.14 55.2578 164.978 55.2578 167.244C55.2578 169.511 57.1108 171.348 59.3965 171.348Z" fill="#FF3951"/>
</svg>
