<svg width="300" height="247" viewBox="0 0 300 247" fill="none" xmlns="http://www.w3.org/2000/svg">
<g clip-path="url(#clip0_123_7143)">
<path d="M40.2063 56.9531C32.1808 56.9564 28.7333 68.5769 20.8795 70.2282C17.3718 70.9657 13.7929 69.4975 10.209 69.434C6.62519 69.3705 2.33839 71.9727 3.09569 75.4762L71.4205 74.4462C64.3583 73.7129 57.7525 70.6098 52.6792 65.6424C48.9761 61.9596 45.4288 56.951 40.2063 56.9531Z" fill="#F0F0F0"/>
<path d="M196.919 178.873C186.935 178.872 177.275 175.331 169.657 168.878C162.038 162.426 156.955 153.481 155.31 143.633L155.297 143.552L155.349 143.489C158.048 140.257 160.23 136.627 161.816 132.727C159.928 135.147 157.647 137.232 155.069 138.897L154.805 139.074L154.789 138.756C154.756 138.058 154.739 137.363 154.739 136.693C154.715 129.52 156.532 122.462 160.014 116.191C163.497 109.921 168.529 104.649 174.631 100.878C163.953 89.7977 158.001 75.0006 158.032 59.6128C158.032 26.7422 184.779 5.95443e-05 217.656 5.95443e-05C230.192 -0.0176647 242.412 3.92195 252.577 11.2574C262.742 18.5928 270.332 28.9497 274.265 40.8518L274.318 41.012L274.161 41.0754C270.102 42.7189 266.366 43.5086 262.792 43.4701C266.865 44.6233 271.092 45.1344 275.322 44.985L275.468 44.9801L275.503 45.1214C276.685 49.8612 277.282 54.7279 277.281 59.6128C277.281 59.7891 277.28 59.9652 277.279 60.1413C277.267 63.9396 278.056 67.6976 279.595 71.1705C281.133 74.6434 283.386 77.7532 286.206 80.2971C290.713 84.3967 294.277 89.4239 296.655 95.0327C299.032 100.641 300.167 106.699 299.979 112.788C299.792 118.877 298.289 124.853 295.571 130.305C292.854 135.758 288.988 140.557 284.239 144.372L284.152 144.442L284.051 144.396C277.815 141.566 273.472 138.408 270.514 134.53C272.514 139.413 275.43 143.868 279.105 147.655L279.265 147.82L279.066 147.936C272.763 151.607 265.615 153.583 258.32 153.67C251.026 153.757 243.833 151.952 237.444 148.431C234.878 157.198 229.545 164.9 222.241 170.387C214.937 175.873 206.054 178.85 196.919 178.873Z" fill="#FF7686"/>
<path d="M181.894 246.061C181.71 246.06 181.532 245.994 181.392 245.873C181.253 245.752 181.162 245.585 181.136 245.402C181.104 245.174 177.915 222.173 180.779 191.604C183.424 163.372 191.919 122.709 217.365 89.3136C217.426 89.2335 217.502 89.1661 217.589 89.1154C217.676 89.0647 217.773 89.0317 217.872 89.0182C217.972 89.0046 218.074 89.0109 218.171 89.0366C218.268 89.0624 218.36 89.107 218.44 89.168C218.52 89.2291 218.587 89.3053 218.638 89.3923C218.688 89.4794 218.721 89.5756 218.735 89.6754C218.748 89.7752 218.742 89.8766 218.716 89.974C218.69 90.0713 218.646 90.1626 218.585 90.2427C193.358 123.35 184.931 163.715 182.305 191.747C179.457 222.138 182.622 244.959 182.654 245.186C182.669 245.295 182.661 245.406 182.63 245.511C182.599 245.616 182.545 245.714 182.473 245.797C182.401 245.88 182.312 245.946 182.212 245.992C182.113 246.037 182.004 246.061 181.894 246.061Z" fill="#3F3D56"/>
<path d="M194.615 133.472C194.453 133.472 194.295 133.421 194.164 133.326C194.033 133.231 193.935 133.097 193.885 132.943C193.835 132.789 193.835 132.623 193.885 132.469C193.935 132.315 194.033 132.181 194.163 132.086C194.256 132.019 203.565 125.311 217.482 120.215C230.347 115.505 249.911 111.235 270.051 117.645C270.147 117.676 270.236 117.725 270.313 117.79C270.39 117.855 270.453 117.934 270.5 118.023C270.546 118.113 270.574 118.211 270.583 118.311C270.591 118.411 270.58 118.512 270.549 118.608C270.519 118.704 270.47 118.793 270.405 118.87C270.34 118.947 270.26 119.01 270.171 119.057C270.081 119.103 269.984 119.131 269.883 119.139C269.783 119.148 269.682 119.136 269.586 119.106C249.859 112.828 230.65 117.027 218.009 121.655C204.291 126.678 195.155 133.26 195.065 133.326C194.934 133.421 194.776 133.472 194.615 133.472Z" fill="#3F3D56"/>
<path d="M40.0234 225.175L42.6129 225.986L59.9896 170.459C59.279 170.278 58.5262 170.376 57.8857 170.733C57.2452 171.09 56.7658 171.679 56.5459 172.378L40.0234 225.175Z" fill="#3F3D56"/>
<path d="M97.1312 152.744H85.6758V119.073H97.1312C99.3228 119.075 101.424 119.947 102.974 121.496C104.523 123.046 105.395 125.147 105.398 127.339V144.477C105.395 146.669 104.523 148.77 102.974 150.32C101.424 151.87 99.3228 152.741 97.1312 152.744Z" fill="#2F2E41"/>
<path d="M95.5368 134.706C95.1542 134.705 94.7874 134.553 94.5169 134.283C94.2463 134.012 94.0942 133.645 94.0938 133.263V120.756H96.9799V133.263C96.9794 133.645 96.8273 134.012 96.5567 134.283C96.2862 134.553 95.9194 134.705 95.5368 134.706Z" fill="#3F3D56"/>
<path d="M99.0084 150.098H90.6265C90.1435 150.098 89.6804 149.906 89.3389 149.564C88.9973 149.222 88.8052 148.759 88.8047 148.276V143.262C88.8052 142.779 88.9973 142.316 89.3389 141.974C89.6804 141.633 90.1435 141.441 90.6265 141.44H99.0084C99.4914 141.441 99.9544 141.633 100.296 141.974C100.637 142.316 100.83 142.779 100.83 143.262V148.276C100.83 148.759 100.637 149.222 100.296 149.564C99.9544 149.906 99.4914 150.098 99.0084 150.098Z" fill="#3F3D56"/>
<path d="M74.5664 115.569C74.3694 115.569 74.1785 115.501 74.026 115.376C73.9316 115.299 73.8541 115.204 73.7984 115.095C73.7427 114.987 73.71 114.869 73.7023 114.747C73.432 110.432 74.1816 106.114 75.8903 102.142C77.0483 99.4615 78.3803 97.7341 80.0824 96.7059C82.353 95.3345 85.4687 95.2249 88.6305 96.4054C90.4374 97.08 91.7405 97.9618 92.6143 99.101C93.7802 100.621 94.1458 102.571 94.3674 104.452C94.7016 107.298 94.78 110.168 94.6019 113.028C94.5938 113.176 94.5467 113.319 94.4653 113.443C94.3839 113.566 94.2711 113.666 94.1385 113.732C93.995 113.802 93.8358 113.833 93.6765 113.823C93.5172 113.812 93.3634 113.76 93.2304 113.672C93.1769 113.637 93.1216 113.605 93.0647 113.575C92.7767 113.431 92.4582 113.357 92.1361 113.362C91.8139 113.366 91.4974 113.447 91.2131 113.599C91.0045 113.722 90.8072 113.864 90.6234 114.022L89.4867 114.942C89.3464 115.053 89.1754 115.119 88.9966 115.13C88.8178 115.142 88.6399 115.098 88.4867 115.005C87.6622 114.537 86.7409 114.265 85.7942 114.21C84.5373 114.163 83.2791 114.255 82.0421 114.483L74.6948 115.56C74.6523 115.566 74.6094 115.569 74.5664 115.569Z" fill="#2F2E41"/>
<path d="M73.5871 238.112H69.6634L67.7969 222.978H73.5878L73.5871 238.112Z" fill="#FFB6B6"/>
<path d="M75.6998 245.562H72.9157L72.4187 242.933L71.1459 245.562H63.7616C63.4076 245.562 63.0629 245.449 62.7778 245.239C62.4927 245.029 62.2821 244.734 62.1768 244.396C62.0714 244.058 62.0769 243.695 62.1923 243.361C62.3077 243.026 62.5271 242.737 62.8184 242.536L68.7152 238.464V235.806L74.9177 236.176L75.6998 245.562Z" fill="#2F2E41"/>
<path d="M118.743 234.755L115.126 236.276L107.539 223.048L112.878 220.804L118.743 234.755Z" fill="#FFB6B6"/>
<path d="M123.574 240.805L121.007 241.884L119.531 239.654L119.376 242.57L112.569 245.432C112.243 245.569 111.881 245.599 111.537 245.516C111.193 245.433 110.884 245.242 110.656 244.972C110.428 244.701 110.293 244.365 110.269 244.011C110.246 243.658 110.336 243.307 110.527 243.009L114.384 236.969L113.354 234.519L119.215 232.456L123.574 240.805Z" fill="#2F2E41"/>
<path d="M71.7523 135.04L70.6279 150.103L63.1707 172.599L60.1758 170.858L64.2389 147.98L65.6187 134.781L71.7523 135.04Z" fill="#FFB6B6"/>
<path d="M61.4315 175.88C63.1649 175.88 64.57 174.475 64.57 172.742C64.57 171.008 63.1649 169.603 61.4315 169.603C59.6981 169.603 58.293 171.008 58.293 172.742C58.293 174.475 59.6981 175.88 61.4315 175.88Z" fill="#FFB6B6"/>
<path d="M90.8895 152.389V156.544C90.8895 156.544 97.321 167.878 94.7021 172.741L104.358 199.155C104.358 199.155 117.453 212.249 116.33 221.603L117.078 224.596L108.473 228.337L106.603 225.718L92.0119 200.651L79.6656 177.83L77.4209 204.767C77.4209 204.767 78.9174 225.718 74.802 227.963L74.4278 231.33H65.6947V228.129C65.6947 228.129 62.4557 216.739 64.3264 208.134L63.5781 171.843C63.5781 171.843 66.9453 156.504 71.0607 153.885L72.5572 150.144L90.8895 152.389Z" fill="#2F2E41"/>
<path d="M97.7606 123.587L89.6055 119.769L87.2516 115.667L79.3361 116.115L76.9409 120.025L69.8955 121.453L70.9308 146.917C70.4696 147.716 70.3052 148.652 70.4667 149.56C70.7139 151.156 71.9693 149.9 70.7139 151.156C69.4584 152.411 68.5122 151.78 69.1422 152.88C69.7723 153.98 68.2227 155.695 68.2227 155.695C68.2227 155.695 88.2647 165.903 93.9265 152.88C93.9265 152.88 95.0428 149.071 93.157 141.09C91.2712 133.109 97.7606 123.587 97.7606 123.587Z" fill="#E4E4E4"/>
<path d="M72.2118 123.074L69.8963 121.452C69.8963 121.452 66.6936 122.767 66.5856 125.427C66.4776 128.087 64.6367 136.047 64.6367 136.047L71.9478 139.978L72.2118 123.074Z" fill="#E4E4E4"/>
<path d="M99.6874 136.295L98.5634 151.358L86.0844 170.088L83.0898 168.348L92.1744 149.235L93.5542 136.037L99.6874 136.295Z" fill="#FFB6B6"/>
<path d="M93.9457 124.438L97.7602 123.587C97.7602 123.587 100.059 124.321 100.373 127.773C100.686 131.226 100.95 137.234 100.95 137.234L92.9445 143.121L90.957 134.678L93.9457 124.438Z" fill="#E4E4E4"/>
<path d="M84.0292 173.369C85.7625 173.369 87.1677 171.964 87.1677 170.231C87.1677 168.497 85.7625 167.092 84.0292 167.092C82.2958 167.092 80.8906 168.497 80.8906 170.231C80.8906 171.964 82.2958 173.369 84.0292 173.369Z" fill="#FFB6B6"/>
<path d="M82.5784 114.322C86.6172 114.322 89.8913 111.048 89.8913 107.009C89.8913 102.97 86.6172 99.6963 82.5784 99.6963C78.5397 99.6963 75.2656 102.97 75.2656 107.009C75.2656 111.048 78.5397 114.322 82.5784 114.322Z" fill="#FFB7B7"/>
<path d="M76.62 105.907H76.6196C75.6881 105.906 74.7554 105.905 73.8215 105.903C73.7102 105.902 73.6001 105.88 73.4977 105.836C73.3954 105.792 73.3028 105.729 73.2253 105.649C73.1491 105.571 73.0896 105.478 73.0503 105.376C73.011 105.274 72.9927 105.165 72.9966 105.056C73.0655 103.506 73.5083 101.996 74.2873 100.655C75.0662 99.3135 76.1582 98.1805 77.4699 97.3526C78.8492 96.5115 80.423 96.0425 82.0377 95.9915C83.6524 95.9404 85.2527 96.3091 86.6823 97.0614C88.112 97.8137 89.322 98.924 90.1943 100.284C91.0666 101.643 91.5712 103.206 91.659 104.819C91.6651 104.928 91.6495 105.037 91.6131 105.14C91.5767 105.243 91.5202 105.338 91.4469 105.419C91.3735 105.5 91.2849 105.565 91.186 105.611C91.0872 105.657 90.9801 105.684 90.8711 105.688C87.6348 105.825 84.0448 105.891 79.2308 105.904H79.2284C79.0646 105.904 78.9043 105.856 78.7683 105.765C78.6323 105.673 78.5268 105.543 78.4652 105.391L78.3877 105.202C78.347 105.102 78.2756 105.018 78.1839 104.961C78.0921 104.904 77.9848 104.878 77.8773 104.886C77.7698 104.895 77.6676 104.937 77.5856 105.007C77.5035 105.076 77.4456 105.171 77.4204 105.275C77.3776 105.455 77.2753 105.616 77.13 105.73C76.9847 105.845 76.805 105.907 76.62 105.907Z" fill="#2F2E41"/>
<path d="M92.9903 142.786C91.0249 140.937 90.1801 138.253 90.1666 135.604C90.1512 132.577 91.2467 129.702 92.6635 127.07C93.5204 125.479 94.4967 123.956 95.4736 122.436C95.8023 121.925 94.9876 121.453 94.6606 121.961C91.3553 127.102 87.7153 133.192 89.8469 139.51C90.336 141.008 91.187 142.362 92.3245 143.452C92.7656 143.867 93.4327 143.203 92.9903 142.786Z" fill="#3F3D56"/>
<path d="M40.0751 198.972C38.4557 198.461 36.725 198.417 35.082 198.846C35.0781 198.848 35.0753 198.847 35.0716 198.849C33.7983 199.18 32.6112 199.782 31.5913 200.613C31.5321 200.661 31.4758 200.709 31.4194 200.758C30.1272 201.866 29.1732 203.316 28.6666 204.942L21.6795 227.269C21.1597 228.922 21.1242 230.689 21.5771 232.361C21.6045 232.455 21.632 232.548 21.6595 232.642C21.9986 233.75 22.5445 234.784 23.2682 235.689C23.2727 235.693 23.2763 235.699 23.2789 235.705C24.4086 237.107 25.93 238.142 27.6496 238.677L40.8272 242.801L53.2528 203.095L40.0751 198.972Z" fill="#FF7686"/>
<path d="M60.8541 170.729L43.8826 224.961C43.8292 225.131 43.8099 225.31 43.8257 225.488C43.8415 225.665 43.8921 225.838 43.9747 225.996C44.0573 226.154 44.1702 226.294 44.3069 226.408C44.4437 226.523 44.6017 226.609 44.7718 226.662C44.9419 226.715 45.1209 226.735 45.2984 226.719C45.4759 226.703 45.6486 226.652 45.8065 226.569C45.9644 226.487 46.1045 226.373 46.2187 226.237C46.3329 226.1 46.419 225.942 46.4721 225.772L62.5893 174.269C62.8074 173.569 62.7491 172.812 62.4264 172.154C62.1036 171.495 61.541 170.985 60.8541 170.729Z" fill="#3F3D56"/>
<path d="M39.6876 245.776C41.0295 245.776 42.1173 244.688 42.1173 243.346C42.1173 242.004 41.0295 240.917 39.6876 240.917C38.3457 240.917 37.2578 242.004 37.2578 243.346C37.2578 244.688 38.3457 245.776 39.6876 245.776Z" fill="#3F3D56"/>
<path d="M23.8594 240.824C25.2014 240.824 26.2892 239.736 26.2892 238.394C26.2892 237.052 25.2014 235.964 23.8594 235.964C22.5175 235.964 21.4297 237.052 21.4297 238.394C21.4297 239.736 22.5175 240.824 23.8594 240.824Z" fill="#3F3D56"/>
<path d="M35.0791 198.846C32.5625 206.736 25.9702 227.368 23.276 235.705C23.2734 235.699 23.2698 235.693 23.2652 235.689C22.5415 234.784 21.9957 233.75 21.6565 232.642C21.6291 232.548 21.6017 232.455 21.5742 232.361C24.463 223.301 29.3013 208.022 31.4165 200.758C31.4729 200.709 31.5292 200.661 31.5884 200.613C32.6083 199.782 33.7953 199.18 35.0687 198.849C35.0724 198.847 35.0752 198.848 35.0791 198.846Z" fill="#3F3D56"/>
<path d="M233.627 245.935H0.427725C0.314172 245.934 0.205384 245.889 0.125206 245.808C0.0450272 245.728 0 245.619 0 245.506C0 245.392 0.0450272 245.283 0.125206 245.203C0.205384 245.122 0.314172 245.077 0.427725 245.077H233.627C233.741 245.077 233.849 245.122 233.93 245.203C234.01 245.283 234.055 245.392 234.055 245.506C234.055 245.619 234.01 245.728 233.93 245.808C233.849 245.889 233.741 245.934 233.627 245.935Z" fill="#CACACA"/>
<path d="M113.207 20.9691C109.503 17.2863 105.956 12.2776 100.734 12.2798C92.7082 12.2831 89.2606 23.9035 81.4069 25.5548C77.8992 26.2924 74.3203 24.8242 70.7364 24.7606C67.1525 24.6971 62.8657 27.2994 63.623 30.8029L131.948 29.7728C124.886 29.0395 118.28 25.9365 113.207 20.9691Z" fill="#F0F0F0"/>
<path d="M265.374 5.6023C257.349 5.60557 253.901 17.226 246.048 18.8774C242.54 19.6149 238.961 18.1467 235.377 18.0831C231.793 18.0196 227.506 20.6219 228.264 24.1254L296.588 23.0953C289.526 22.362 282.92 19.2589 277.847 14.2916C274.144 10.6088 270.597 5.60014 265.374 5.6023Z" fill="#F0F0F0"/>
</g>
<defs>
<clipPath id="clip0_123_7143">
<rect width="300" height="246.061" fill="white"/>
</clipPath>
</defs>
</svg>
