<svg width="300" height="179" viewBox="0 0 300 179" fill="none" xmlns="http://www.w3.org/2000/svg">
<g clip-path="url(#clip0_123_6975)">
<path d="M32.5887 125.79C31.2931 125.93 29.8785 126.139 28.3737 126.446C21.9979 127.746 21.8626 132.076 21.92 133.068L21.8749 133.039C21.2352 134.068 20.8334 135.11 20.5874 136.09L20.2963 122.818C20.4849 122.424 20.6571 121.977 20.8006 121.522C21.2762 122.994 22.0594 124.38 22.7359 124.289C23.6134 124.171 23.9947 121.587 23.8307 119.755C24.9459 121.19 26.8238 122.727 27.5332 122.252C28.099 121.874 27.7628 120.316 27.1478 118.898C28.4352 119.673 29.8621 120.181 30.3049 119.689C30.9076 119.017 29.4603 116.725 28.1277 115.445C29.9113 115.613 32.1828 115.326 32.3345 114.515C32.4575 113.846 31.1045 113.002 29.6571 112.456C31.1086 112.075 32.4698 111.407 32.4247 110.746C32.3714 109.963 30.3541 109.434 28.6115 109.357C29.9236 108.331 31.1291 106.909 30.76 106.269C30.4197 105.679 28.8452 105.908 27.3897 106.429C28.2507 105.199 28.8575 103.809 28.3942 103.333C27.8202 102.743 25.7824 103.764 24.3883 104.891C24.6589 103.132 24.5236 100.914 23.7323 100.713C23.0721 100.545 22.1373 101.837 21.4977 103.243C21.2147 101.767 20.6407 100.365 19.9806 100.365C19.0375 100.365 18.2749 103.206 18.2749 105.059C18.2749 105.166 18.2749 105.264 18.2831 105.359C18.1888 105.248 18.0781 105.133 17.9551 105.014C16.6266 103.723 14.0558 102.292 13.3956 102.968C12.9364 103.444 13.5392 104.83 14.4002 106.064C12.9446 105.543 11.366 105.314 11.0298 105.904C10.5747 106.695 12.5223 108.676 14.105 109.635C14.0107 109.623 13.9082 109.615 13.8016 109.607C11.9524 109.48 9.06582 110.049 9.00022 110.988C8.95512 111.649 10.3123 112.317 11.7679 112.698C10.3205 113.244 8.97152 114.088 9.09042 114.756C9.23803 115.568 11.5095 115.855 13.2972 115.687C11.9647 116.967 10.5173 119.259 11.12 119.931C11.5629 120.423 12.9897 119.915 14.2772 119.14C13.6581 120.558 13.3259 122.116 13.8918 122.494C14.638 122.994 16.6922 121.251 17.7706 119.755C17.6599 121.587 18.0986 124.105 18.9678 124.203C19.3327 124.244 19.7182 123.855 20.0667 123.26L19.0826 137.525C18.853 139.186 20.325 140.272 20.4562 140.953L20.6694 150.613C20.4275 149.924 20.1077 149.219 19.669 148.522L19.6239 148.55C19.6813 147.558 19.546 143.228 13.1701 141.929C11.6654 141.621 10.2508 141.412 8.95512 141.273C7.42574 141.109 6.82711 143.204 8.20888 143.88C10.2098 144.86 12.0918 146.094 13.0758 147.554C15.5852 151.289 19.0498 149.133 19.546 148.796C20.0954 149.715 20.4562 150.637 20.6858 151.515L20.8006 156.644C20.7719 156.767 20.7555 156.833 20.7514 156.837L20.8047 156.853L21.0794 169.269L23.6134 169.248L22.7072 156.558C22.8589 155.873 23.3264 153.54 22.7072 151.121L21.8011 141.15L20.6202 137.23C20.7924 136.016 21.1901 134.655 22.002 133.306C22.494 133.642 25.9628 135.803 28.4721 132.063C29.4521 130.604 31.3382 129.37 33.3391 128.39C34.7208 127.713 34.1263 125.618 32.5928 125.782L32.5887 125.79ZM21.0138 155.164L20.9646 152.991C21.0589 153.811 21.0548 154.553 21.0138 155.164Z" fill="#F2F2F2"/>
<path d="M0 169.867C0 170.138 0.217311 170.355 0.487925 170.355H299.512C299.783 170.355 300 170.138 300 169.867C300 169.597 299.783 169.379 299.512 169.379H0.487925C0.217311 169.379 0 169.597 0 169.867Z" fill="#3F3D56"/>
<path d="M181.465 170.298C193.694 170.298 203.606 160.385 203.606 148.157C203.606 135.929 193.694 126.016 181.465 126.016C169.237 126.016 159.324 135.929 159.324 148.157C159.324 160.385 169.237 170.298 181.465 170.298Z" fill="#3F3D56"/>
<path d="M181.464 162.918C189.616 162.918 196.225 156.309 196.225 148.157C196.225 140.005 189.616 133.396 181.464 133.396C173.312 133.396 166.703 140.005 166.703 148.157C166.703 156.309 173.312 162.918 181.464 162.918Z" fill="white"/>
<path d="M181.464 156.562C186.106 156.562 189.869 152.799 189.869 148.157C189.869 143.515 186.106 139.751 181.464 139.751C176.822 139.751 173.059 143.515 173.059 148.157C173.059 152.799 176.822 156.562 181.464 156.562Z" fill="#3F3D56"/>
<path d="M53.5396 170.298C65.7678 170.298 75.6807 160.385 75.6807 148.157C75.6807 135.929 65.7678 126.016 53.5396 126.016C41.3114 126.016 31.3984 135.929 31.3984 148.157C31.3984 160.385 41.3114 170.298 53.5396 170.298Z" fill="#3F3D56"/>
<path d="M53.5381 162.918C61.6902 162.918 68.2989 156.309 68.2989 148.157C68.2989 140.005 61.6902 133.396 53.5381 133.396C45.386 133.396 38.7773 140.005 38.7773 148.157C38.7773 156.309 45.386 162.918 53.5381 162.918Z" fill="white"/>
<path d="M211.754 137.627C208.872 130.358 198.793 108.147 180.842 100.795C180.703 100.738 180.56 100.701 180.412 100.68L122.841 92.4349C121.894 92.2996 121.008 92.9475 120.856 93.8946L119.848 100.127C119.778 100.553 119.868 100.992 120.102 101.357C123.025 105.892 141.763 136.68 111.758 136.68C81.7528 136.68 73.4827 115.208 72.1706 111.415C72.0476 111.058 72.0435 110.673 72.1542 110.312L81.2485 81.5079C81.4084 80.9954 81.3223 80.4705 81.0599 80.0523L85.0576 72.6268L92.3805 76.7722L96.1732 76.8173L109.118 83.5826L111.754 79.2774L85.0576 65.9599C85.0576 65.9599 85.1027 62.8765 76.4922 60.4164L62.9615 54.2661L61.3215 56.3162L65.4217 59.5964L65.8317 62.0565L68.7018 62.8765L74.4421 73.9471L72.802 77.1207L74.7947 78.0924L74.2248 77.9612C73.4007 77.7726 72.5601 78.199 72.2239 78.974L63.1788 99.7046C63.0394 100.02 62.8098 100.291 62.5187 100.48L59.296 102.558C58.9966 102.751 58.7588 103.034 58.6235 103.366L54.9415 112.292C54.8267 112.571 54.7939 112.862 54.8226 113.145C50.2345 114.014 36.7489 117.77 29.3398 132.584L37.9503 139.555C37.9503 139.555 51.4482 130.821 73.7533 139.915C77.6321 145.951 83.2863 150.957 91.4539 151.429C112.984 152.675 148.656 153.905 152.756 148.985C155.757 145.381 157.844 143.134 158.751 142.187C159.07 141.855 159.505 141.662 159.964 141.646L210.171 140.042C211.389 140.006 212.197 138.767 211.75 137.636L211.754 137.627Z" fill="#FF7686"/>
<path d="M73.2205 73.1231C76.8437 73.1231 79.7808 70.1859 79.7808 66.5628C79.7808 62.9396 76.8437 60.0024 73.2205 60.0024C69.5973 60.0024 66.6602 62.9396 66.6602 66.5628C66.6602 70.1859 69.5973 73.1231 73.2205 73.1231Z" fill="#3F3D56"/>
<path d="M178.28 100.824C178.203 100.824 178.125 100.824 178.047 100.82L123.194 98.6959C120.767 98.6016 118.688 97.0558 117.897 94.7597L117.146 92.5743C116.535 90.7948 116.802 88.8841 117.876 87.3383C118.954 85.7926 120.652 84.8823 122.534 84.8372L179.207 83.5333C180.962 83.4923 182.651 84.2427 183.795 85.5957C184.939 86.9488 185.407 88.7201 185.074 90.4627L184.004 96.0718C183.475 98.8558 181.085 100.82 178.276 100.82L178.28 100.824Z" fill="#3F3D56"/>
<path d="M53.5382 156.562C58.1804 156.562 61.9437 152.799 61.9437 148.157C61.9437 143.515 58.1804 139.751 53.5382 139.751C48.896 139.751 45.1328 143.515 45.1328 148.157C45.1328 152.799 48.896 156.562 53.5382 156.562Z" fill="#3F3D56"/>
<path d="M200.318 124.228C199.006 124.228 197.755 123.527 197.087 122.317L192.933 114.797C192.273 113.604 192.314 112.206 193.036 111.054C193.757 109.898 195.004 109.25 196.357 109.324L203.897 109.709C205.299 109.783 206.562 110.664 207.112 111.96L209.314 117.167C209.715 118.123 209.707 119.164 209.285 120.111C208.862 121.054 208.092 121.764 207.116 122.1L201.531 124.027C201.134 124.166 200.724 124.232 200.322 124.232L200.318 124.228Z" fill="#3F3D56"/>
<path d="M104.967 174.206C104.906 174.206 104.84 174.206 104.779 174.193L103.106 174.009C102.56 173.947 102.085 173.64 101.806 173.164C101.527 172.689 101.49 172.127 101.703 171.618L110.412 150.937C110.65 150.371 111.179 149.969 111.79 149.891C112.384 149.818 112.963 150.051 113.344 150.515C113.721 150.978 113.836 151.593 113.643 152.159L106.611 173.025C106.373 173.73 105.701 174.201 104.971 174.201L104.967 174.206Z" fill="#3F3D56"/>
<path d="M150.181 29.8824C150.181 29.8824 146.995 23.5107 147.63 17.7786L137.027 23.2728L137.437 33.7038L150.181 29.8824Z" fill="#A0616A"/>
<path d="M143.601 26.2168C148.884 26.2168 153.167 21.934 153.167 16.651C153.167 11.368 148.884 7.08521 143.601 7.08521C138.318 7.08521 134.035 11.368 134.035 16.651C134.035 21.934 138.318 26.2168 143.601 26.2168Z" fill="#A0616A"/>
<path d="M153.372 166.85H147.534L144.758 144.335H153.372V166.85Z" fill="#A0616A"/>
<path d="M133.376 166.714C133.196 167.022 133.098 168.01 133.098 168.363C133.098 169.457 133.983 170.343 135.078 170.343H153.152C153.898 170.343 154.505 169.736 154.505 168.99V168.235C154.505 168.235 155.399 165.972 153.558 163.188C153.558 163.188 151.27 165.369 147.85 161.954L146.842 160.129L139.543 165.468L135.496 165.964C134.611 166.075 133.827 165.948 133.372 166.714H133.376Z" fill="#2F2E41"/>
<path d="M136.162 29.8824L150.181 27.9717L161.013 33.0682L161.649 72.5696C161.649 72.5696 135.006 75.7555 130.807 71.6143C126.608 67.4731 129.794 34.3434 129.794 34.3434L136.166 29.8824H136.162Z" fill="#E6E6E6"/>
<path d="M141.206 19.0864H138.635C138.635 19.0864 136.404 16.3393 136.704 18.0122C137.003 19.685 135.802 21.485 135.802 21.485L134.002 20.8864C134.002 20.8864 130.402 5.74432 141.206 4.91198C152.01 4.07963 154.412 12.4851 154.412 12.4851C154.412 12.4851 153.814 16.6878 152.612 15.4864C151.411 14.2851 144.81 13.6864 144.81 13.6864L141.21 19.0905L141.206 19.0864Z" fill="#2F2E41"/>
<path d="M134.404 161.79L128.791 163.373L120 142.466L128.291 140.125L134.404 161.79Z" fill="#A0616A"/>
<path d="M115.127 167.095C115.036 167.44 115.213 168.416 115.307 168.76C115.602 169.814 116.697 170.425 117.751 170.13L135.144 165.218C135.861 165.017 136.279 164.266 136.079 163.549L135.874 162.823C135.874 162.823 136.12 160.404 133.59 158.223C133.59 158.223 131.982 160.945 127.763 158.583L126.295 157.099L120.723 164.217L116.968 165.796C116.147 166.14 115.356 166.234 115.127 167.095Z" fill="#2F2E41"/>
<path d="M159.734 68.7483L161.645 74.5296V94.3951L155.909 154.357H144.707L143.444 111.554L144.441 90.4138L123.074 122.74L132.464 145.828L122.127 152.721C122.127 152.721 106.669 117.496 108.982 114.08C111.294 110.669 132.009 70.3761 132.009 70.3761C132.009 70.3761 159.726 69.3879 159.726 68.7524L159.734 68.7483Z" fill="#2F2E41"/>
<path d="M165.472 45.8115L168.552 50.8548C168.552 50.8548 172.906 67.969 168.552 68.0387C164.197 68.1085 155.406 59.3176 155.406 59.3176L156.554 54.7295L159.74 56.0046L159.105 45.8115H165.476H165.472Z" fill="#A0616A"/>
<path d="M155.914 32.9902C155.914 32.9902 166.107 31.1943 167.063 37.8654C168.018 44.5364 168.551 50.859 168.551 50.859L157.505 51.7733L155.914 32.9902Z" fill="#E6E6E6"/>
<path d="M158.127 58.7593C159.049 57.4645 157.699 54.9207 155.111 53.0775C152.523 51.2344 149.678 50.7899 148.756 52.0847C147.834 53.3795 149.184 55.9233 151.772 57.7665C154.359 59.6096 157.205 60.0541 158.127 58.7593Z" fill="#A0616A"/>
<path d="M242.108 125.79C240.813 125.93 239.398 126.139 237.893 126.446C231.517 127.746 231.382 132.076 231.44 133.068L231.394 133.039C230.755 134.068 230.353 135.11 230.107 136.09L229.816 122.818C230.004 122.424 230.177 121.977 230.32 121.522C230.796 122.994 231.579 124.38 232.255 124.289C233.133 124.171 233.514 121.587 233.35 119.755C234.465 121.19 236.343 122.727 237.053 122.252C237.619 121.874 237.282 120.316 236.667 118.898C237.955 119.673 239.382 120.181 239.824 119.689C240.427 119.017 238.98 116.725 237.647 115.445C239.431 115.613 241.702 115.326 241.854 114.515C241.977 113.846 240.624 113.002 239.177 112.456C240.628 112.075 241.989 111.407 241.944 110.746C241.891 109.963 239.874 109.434 238.131 109.357C239.443 108.331 240.649 106.909 240.28 106.269C239.939 105.679 238.365 105.908 236.909 106.429C237.77 105.199 238.377 103.809 237.914 103.333C237.34 102.743 235.302 103.764 233.908 104.891C234.178 103.132 234.043 100.914 233.252 100.713C232.592 100.545 231.657 101.837 231.017 103.243C230.734 101.767 230.16 100.365 229.5 100.365C228.557 100.365 227.794 103.206 227.794 105.059C227.794 105.166 227.794 105.264 227.803 105.359C227.708 105.248 227.598 105.133 227.475 105.014C226.146 103.723 223.575 102.292 222.915 102.968C222.456 103.444 223.059 104.83 223.92 106.064C222.464 105.543 220.886 105.314 220.549 105.904C220.094 106.695 222.042 108.676 223.625 109.635C223.53 109.623 223.428 109.615 223.321 109.607C221.472 109.48 218.585 110.049 218.52 110.988C218.475 111.649 219.832 112.317 221.287 112.698C219.84 113.244 218.491 114.088 218.61 114.756C218.758 115.568 221.029 115.855 222.817 115.687C221.484 116.967 220.037 119.259 220.64 119.931C221.082 120.423 222.509 119.915 223.797 119.14C223.178 120.558 222.845 122.116 223.411 122.494C224.158 122.994 226.212 121.251 227.29 119.755C227.179 121.587 227.618 124.105 228.487 124.203C228.852 124.244 229.238 123.855 229.586 123.26L228.602 137.525C228.373 139.186 229.845 140.272 229.976 140.953L230.189 150.613C229.947 149.924 229.627 149.219 229.188 148.522L229.143 148.55C229.201 147.558 229.065 143.228 222.69 141.929C221.185 141.621 219.77 141.412 218.475 141.273C216.945 141.109 216.347 143.204 217.728 143.88C219.729 144.86 221.611 146.094 222.595 147.554C225.105 151.289 228.569 149.133 229.065 148.796C229.615 149.715 229.976 150.637 230.205 151.515L230.32 156.644C230.291 156.767 230.275 156.833 230.271 156.837L230.324 156.853L230.599 169.269L233.133 169.248L232.227 156.558C232.378 155.873 232.846 153.54 232.227 151.121L231.321 141.15L230.14 137.23C230.312 136.016 230.71 134.655 231.522 133.306C232.014 133.642 235.482 135.803 237.992 132.063C238.972 130.604 240.858 129.37 242.859 128.39C244.24 127.713 243.646 125.618 242.112 125.782L242.108 125.79ZM230.533 155.164L230.484 152.991C230.578 153.811 230.574 154.553 230.533 155.164Z" fill="#F2F2F2"/>
<path d="M212.599 167.728L217.007 166.776L215.429 149.334L208.93 150.736L212.599 167.728Z" fill="#A0616A"/>
<path d="M227.672 164.37C227.86 164.571 228.094 165.3 228.151 165.571C228.332 166.395 227.807 167.211 226.979 167.387L213.337 170.335C212.776 170.458 212.218 170.098 212.095 169.536L211.972 168.966C211.972 168.966 210.926 167.404 211.861 165.001C211.861 165.001 213.944 166.276 215.966 163.135L216.429 161.594L222.809 164.431L225.941 164.148C226.626 164.087 227.2 163.861 227.668 164.37H227.672Z" fill="#2F2E41"/>
<path d="M220.48 166.395L224.154 163.787L215.843 148.37L210.418 152.216L220.48 166.395Z" fill="#A0616A"/>
<path d="M233.016 157.374C233.266 157.485 233.77 158.063 233.926 158.288C234.414 158.977 234.254 159.933 233.565 160.421L222.183 168.498C221.711 168.83 221.063 168.719 220.727 168.252L220.391 167.776C220.391 167.776 218.817 166.751 218.73 164.172C218.73 164.172 221.145 164.525 221.773 160.843L221.592 159.244L228.575 159.342L231.347 157.85C231.954 157.522 232.392 157.091 233.02 157.374H233.016Z" fill="#2F2E41"/>
<path d="M167.533 80.1468C167.533 80.1468 160.682 89.4625 174.385 99.9385L202.369 90.996L192.372 70.1505L183.52 65.2959L167.529 80.1427L167.533 80.1468Z" fill="#2F2E41"/>
<path d="M202.373 91L213.222 112.128L220.077 156.107L211.512 156.677L202.942 114.986L187.809 92.4269L198.375 87.5723" fill="#2F2E41"/>
<path d="M174.391 93.3044V99.9427L193.809 121.268C193.809 121.268 193.809 137.259 201.235 144.684L209.8 157.821L217.225 153.823L206.376 115.56L186.958 90.4302L174.395 93.3044H174.391Z" fill="#2F2E41"/>
<path d="M188.188 27.5001L184.531 41.4449L170.586 38.7019C170.586 38.7019 180.316 28.6687 178.946 24.0969L188.192 27.5001H188.188Z" fill="#A0616A"/>
<path d="M177.533 29.6035L186.098 33.6012C186.098 33.6012 190.506 36.2951 190.588 38.0909C190.67 39.8868 190.096 48.4522 190.096 48.4522C190.096 48.4522 193.524 51.8799 191.24 58.7314L192.384 70.1546L166.684 83.8616L168.967 59.8753L167.823 37.603L177.533 29.6076V29.6035Z" fill="#3F3D56"/>
<path d="M169.842 94.5999C170.847 96.9002 172.848 98.2491 174.312 97.6095C175.775 96.9699 176.149 94.5876 175.148 92.2874C174.759 91.3608 174.156 90.5448 173.385 89.9011L169.01 80.2041L164.504 82.3526L169.293 91.6847C169.24 92.6851 169.428 93.6856 169.842 94.5999Z" fill="#A0616A"/>
<path d="M174.389 39.0299C174.389 39.0299 168.108 35.0321 165.824 39.5998C163.54 44.1674 158.398 67.5837 158.398 67.5837L165.824 89.856L172.675 87.0023L166.677 63.0325L174.385 39.0299H174.389Z" fill="#3F3D56"/>
<path d="M206.589 91.0042C208.368 92.7755 210.726 93.2921 211.854 92.1564C212.981 91.0206 212.448 88.6712 210.669 86.8999C209.967 86.1824 209.102 85.6452 208.151 85.3295L200.512 77.9246L197.113 81.5819L205.002 88.4908C205.322 89.442 205.867 90.3031 206.589 91.0001V91.0042Z" fill="#A0616A"/>
<path d="M190.343 37.6645C190.343 37.6645 179.391 37.2176 178.948 42.306C178.51 47.3943 185.997 70.1013 185.997 70.1013L201.106 88.0725L206.424 82.8939L192.02 62.8193L190.347 37.6645H190.343Z" fill="#3F3D56"/>
<path d="M158.275 78.8961L149.127 51.1254C141.73 44.6102 133.706 60.3017 112.168 51.4042L118.942 82.8159C135.228 74.0128 149.242 70.5645 158.275 78.8961Z" fill="white"/>
<path d="M118.943 83.636C118.885 83.636 118.824 83.6237 118.77 83.5991C118.652 83.5458 118.57 83.4392 118.541 83.3121L111.767 51.9004C111.735 51.7528 111.788 51.597 111.907 51.4986C112.026 51.4002 112.186 51.3756 112.325 51.433C124.56 56.4844 132.457 53.479 138.226 51.2813C142.609 49.6125 146.07 48.2922 149.399 51.2239C149.452 51.2731 149.493 51.3346 149.518 51.4043L158.666 79.175C158.723 79.3513 158.653 79.5481 158.497 79.6465C158.342 79.749 158.132 79.7285 157.997 79.6014C150.059 72.2784 137.709 73.5413 119.14 83.5827C119.078 83.6155 119.012 83.6319 118.943 83.6319V83.636ZM112.731 52.4826L119.226 82.6068C137.045 73.0657 149.251 71.5937 157.423 78.0433L148.768 51.7733C145.836 49.264 142.757 50.4366 138.513 52.0521C132.732 54.2539 124.855 57.2553 112.731 52.4867V52.4826Z" fill="#3F3D56"/>
<path d="M126.357 37.894L120.568 39.0913C120.568 39.0913 105.093 47.6074 108.021 50.8343C110.944 54.0612 123.372 54.4753 123.372 54.4753L125.939 50.5022L122.831 49.0466L130.711 42.5478L126.357 37.894Z" fill="#A0616A"/>
<path d="M142.248 36.1105C142.248 36.1105 136.594 27.4386 131.071 31.301C125.548 35.1634 120.57 39.0914 120.57 39.0914L127.45 47.7797L142.252 36.1105H142.248Z" fill="#E6E6E6"/>
<path d="M133.195 54.3851C133.51 52.827 131.242 51.0531 128.128 50.423C125.014 49.7928 122.234 50.5451 121.919 52.1031C121.603 53.6612 123.872 55.4351 126.986 56.0653C130.1 56.6954 132.88 55.9432 133.195 54.3851Z" fill="#A0616A"/>
<path d="M240.121 173.004C242.032 173.004 243.581 171.455 243.581 169.544C243.581 167.632 242.032 166.083 240.121 166.083C238.21 166.083 236.66 167.632 236.66 169.544C236.66 171.455 238.21 173.004 240.121 173.004Z" fill="#3F3D56"/>
<path d="M244.734 178.371C246.645 178.371 248.195 176.822 248.195 174.911C248.195 173 246.645 171.45 244.734 171.45C242.823 171.45 241.273 173 241.273 174.911C241.273 176.822 242.823 178.371 244.734 178.371Z" fill="#3F3D56"/>
<path d="M279.332 178.371C281.243 178.371 282.792 176.822 282.792 174.911C282.792 173 281.243 171.45 279.332 171.45C277.42 171.45 275.871 173 275.871 174.911C275.871 176.822 277.42 178.371 279.332 178.371Z" fill="#3F3D56"/>
<path d="M249.801 123.125V85.5469C249.801 81.3401 253.319 80.2987 257.526 80.2987C259.588 80.2987 260.589 80.0609 262.036 81.5287C263.483 82.9966 265.091 83.6075 265.058 85.6699L264.451 122.543L249.797 123.121L249.801 123.125ZM257.936 82.7629C254.18 82.7629 250.621 81.7952 250.621 85.551V122.277L263.647 121.76L264.242 85.6617C264.271 83.8207 261.277 84.075 259.99 82.7629C258.698 81.4508 259.781 82.7629 257.94 82.7629H257.936Z" fill="#3F3D56"/>
<path d="M239.502 122.67L238.977 163.726C238.969 164.254 239.096 164.775 239.342 165.243L243.221 172.57C243.791 173.648 244.93 174.3 246.148 174.247L280.205 172.746C281.947 172.668 283.296 171.192 283.218 169.449L281.082 122.572C281.004 120.887 279.618 119.558 277.929 119.558H242.655C240.929 119.558 239.522 120.948 239.498 122.674L239.502 122.67Z" fill="#E6E6E6"/>
<path d="M252.926 141.199L252.105 141.158L252.409 135.082C252.573 131.81 255.267 129.185 258.543 129.108L273.045 128.771C275.973 128.722 278.4 130.94 278.56 133.868L278.868 139.424L278.047 139.469L277.74 133.913C277.601 131.432 275.53 129.53 273.062 129.591L258.559 129.928C255.71 129.993 253.368 132.277 253.225 135.123L252.921 141.199H252.926Z" fill="#3F3D56"/>
<path d="M252.347 170.63L251.531 170.548L253.298 153.303C253.626 150.113 256.287 147.599 259.49 147.456L273.635 146.82C275.419 146.738 277.112 147.37 278.408 148.595C279.704 149.821 280.425 151.478 280.446 153.262L280.606 168.276L279.786 168.285L279.626 153.27C279.609 151.712 278.978 150.264 277.846 149.19C276.715 148.116 275.226 147.566 273.676 147.636L259.531 148.272C256.73 148.399 254.405 150.592 254.118 153.38L252.351 170.626L252.347 170.63Z" fill="#3F3D56"/>
<path d="M246.008 169.437L245.188 169.425L245.704 130.014C245.741 127.32 247.877 125.147 250.571 125.065L278.453 124.245L278.477 125.065L250.596 125.885C248.341 125.95 246.553 127.767 246.524 130.022L246.008 169.433V169.437Z" fill="#3F3D56"/>
<path d="M246.084 163.824H245.514V127.93C245.514 126.795 244.591 125.868 243.451 125.868H240.266V125.048H243.451C244.956 125.048 246.195 126.208 246.322 127.676C246.33 127.758 246.334 127.844 246.334 127.93V144.926L246.084 163.824Z" fill="#3F3D56"/>
<path d="M194.143 20.0461C194.143 25.3026 189.882 29.5627 184.626 29.5627C179.369 29.5627 175.109 25.3026 175.109 20.0461C175.109 14.7897 179.369 10.5295 184.626 10.5295C189.882 10.5295 194.143 14.7897 194.143 20.0461Z" fill="#A0616A"/>
<path d="M183.866 7.25338C184.141 7.41329 184.51 7.17138 184.6 6.86386C184.69 6.55634 184.584 6.23243 184.485 5.92901C184.313 5.42059 184.145 4.91626 183.973 4.40784C183.608 3.32948 183.222 2.21422 182.435 1.39418C181.246 0.155918 179.352 -0.159798 177.65 0.069814C175.465 0.365029 173.308 1.54589 172.291 3.50579C171.274 5.46569 171.709 8.19643 173.546 9.41829C170.926 12.4196 170.015 15.7654 170.159 19.7426C170.302 23.7239 174.641 27.3854 177.47 30.1899C178.101 29.8086 178.675 28.0127 178.327 27.3608C177.978 26.7089 178.478 25.9544 178.048 25.3517C177.617 24.7531 177.256 25.7084 177.691 25.1098C177.966 24.7326 176.896 23.8674 177.302 23.6419C179.274 22.5513 179.93 20.0911 181.168 18.2091C182.665 15.9376 185.219 14.4 187.929 14.1458C189.422 14.0064 190.996 14.2606 192.218 15.1258C193.44 15.9909 194.231 17.5367 193.948 19.0087C194.682 18.2624 195.047 17.1718 194.912 16.1344C194.773 15.0971 194.137 14.1376 193.231 13.6087C193.78 11.7923 193.309 9.7012 192.034 8.29893C190.758 6.89256 185.588 7.13447 183.727 7.50349L183.87 7.25748L183.866 7.25338Z" fill="#2F2E41"/>
<path d="M183.577 14.1992C181.113 14.4657 179.333 16.6019 177.829 18.5741C176.963 19.7099 176.053 20.9646 176.078 22.3955C176.098 23.8388 177.066 25.0812 177.529 26.4465C178.284 28.6853 177.55 31.3463 175.754 32.8798C177.529 33.216 179.448 31.8875 179.752 30.1039C180.108 28.0333 178.538 26.0324 178.722 23.9372C178.886 22.0921 180.342 20.6734 181.576 19.2917C182.814 17.9099 183.975 16.0812 183.405 14.3181L183.577 14.1992Z" fill="#2F2E41"/>
</g>
<defs>
<clipPath id="clip0_123_6975">
<rect width="300" height="178.371" fill="white"/>
</clipPath>
</defs>
</svg>
