<svg width="300" height="264" viewBox="0 0 300 264" fill="none" xmlns="http://www.w3.org/2000/svg">
<g clip-path="url(#clip0_123_7051)">
<path d="M229.499 161.315C229.193 160.379 226.874 160.791 226.652 159.954C226.43 159.119 228.655 158.42 230.361 156.069C230.669 155.644 232.608 152.973 231.864 151.849C230.455 149.719 220.646 155.024 218.292 152.047C217.775 151.393 217.562 150.272 216.023 148.184C215.411 147.354 215.018 146.953 214.548 146.965C213.882 146.981 213.644 147.815 212.597 149.324C211.027 151.588 210.461 151.303 209.426 153.158C208.659 154.535 208.568 155.415 208.014 155.467C207.231 155.54 206.907 153.826 205.95 153.759C204.973 153.691 203.995 155.385 203.511 156.708C202.601 159.192 203.164 161.09 203.289 162.982C203.425 165.037 203.106 168.047 200.873 171.909L179.805 205.475C184.329 198.633 197.173 179.973 202.347 173.129C203.841 171.153 205.446 169.169 207.917 168.795C210.296 168.436 213.19 169.613 217.23 169.544C217.702 169.536 219.015 169.497 219.335 168.801C219.599 168.226 218.943 167.726 219.182 167.185C219.501 166.46 220.941 166.771 222.902 166.289C224.286 165.949 225.225 165.388 226.033 164.905C226.277 164.76 229.906 162.561 229.499 161.315Z" fill="#F2F2F2"/>
<path d="M174.318 169.152C173.77 169.032 173.304 170.289 172.828 170.157C172.355 170.025 172.654 168.731 171.992 167.215C171.873 166.942 171.121 165.219 170.355 165.26C168.902 165.337 168.676 171.682 166.536 171.978C166.066 172.044 165.454 171.824 163.985 171.977C163.401 172.038 163.091 172.116 162.961 172.349C162.777 172.681 163.117 173.038 163.556 173.988C164.214 175.411 163.911 175.607 164.523 176.65C164.977 177.424 165.383 177.723 165.249 178.009C165.059 178.415 164.124 178.079 163.815 178.53C163.5 178.99 164.049 179.958 164.559 180.578C165.515 181.741 166.609 182.012 167.574 182.497C168.622 183.023 170.007 184.048 171.258 186.259L181.654 206.284C179.601 202.089 174.148 190.401 172.282 185.887C171.743 184.584 171.233 183.223 171.763 181.903C172.272 180.632 173.685 179.551 174.817 177.548C174.95 177.314 175.309 176.658 175.06 176.301C174.854 176.005 174.419 176.183 174.222 175.91C173.959 175.543 174.527 174.927 174.856 173.825C175.088 173.048 175.084 172.425 175.08 171.889C175.079 171.727 175.047 169.312 174.318 169.152Z" fill="#F2F2F2"/>
<path d="M184.691 174.038L185.018 171.021L185.219 170.831C186.146 169.955 186.726 169.027 186.943 168.071C186.978 167.919 187.005 167.766 187.032 167.609C187.141 166.989 187.276 166.218 187.872 165.417C188.206 164.97 189.089 163.962 189.999 164.314C190.245 164.406 190.411 164.566 190.526 164.735C190.555 164.705 190.585 164.676 190.616 164.644C191.01 164.262 191.285 164.122 191.55 163.987C191.754 163.883 191.964 163.777 192.32 163.492C192.476 163.367 192.601 163.255 192.706 163.16C193.026 162.875 193.435 162.541 193.994 162.673C194.588 162.836 194.791 163.402 194.926 163.776C195.167 164.445 195.242 164.905 195.291 165.209C195.308 165.321 195.329 165.446 195.344 165.487C195.474 165.814 197.105 165.899 197.718 165.934C199.097 166.009 200.291 166.074 200.577 167.018C200.783 167.694 200.354 168.43 199.265 169.266C198.926 169.526 198.587 169.706 198.291 169.84C198.473 170.012 198.618 170.245 198.627 170.564C198.647 171.317 197.874 171.895 196.33 172.285C195.947 172.383 195.43 172.512 194.755 172.48C194.437 172.464 194.159 172.415 193.921 172.37C193.886 172.505 193.821 172.646 193.704 172.779C193.36 173.172 192.805 173.272 192.052 173.051C191.22 172.819 190.563 172.504 189.984 172.227C189.477 171.986 189.041 171.779 188.674 171.723C187.993 171.628 187.357 172.048 186.597 172.608L184.691 174.038Z" fill="#F2F2F2"/>
<path d="M190.126 156.854L187.125 157.303L186.891 157.158C185.808 156.483 184.763 156.157 183.783 156.189C183.627 156.194 183.472 156.207 183.314 156.22C182.686 156.273 181.906 156.338 180.98 155.964C180.464 155.755 179.264 155.157 179.374 154.186C179.401 153.925 179.513 153.724 179.647 153.57C179.611 153.55 179.575 153.528 179.537 153.506C179.067 153.222 178.862 152.992 178.664 152.769C178.512 152.599 178.356 152.422 177.99 152.15C177.83 152.031 177.689 151.938 177.571 151.86C177.214 151.624 176.787 151.313 176.773 150.738C176.78 150.123 177.276 149.783 177.604 149.557C178.189 149.154 178.615 148.966 178.898 148.841C179.001 148.796 179.117 148.744 179.153 148.719C179.436 148.51 179.105 146.911 178.983 146.309C178.706 144.956 178.466 143.785 179.306 143.268C179.908 142.898 180.729 143.126 181.814 143.967C182.151 144.23 182.411 144.512 182.616 144.764C182.736 144.545 182.925 144.345 183.231 144.256C183.954 144.046 184.709 144.646 185.478 146.041C185.67 146.387 185.926 146.853 186.066 147.515C186.131 147.826 186.155 148.108 186.171 148.349C186.311 148.349 186.464 148.377 186.622 148.456C187.09 148.688 187.328 149.2 187.304 149.985C187.291 150.848 187.153 151.563 187.032 152.194C186.927 152.745 186.838 153.22 186.877 153.589C186.957 154.272 187.525 154.78 188.26 155.374L190.126 156.854Z" fill="#F2F2F2"/>
<path d="M190.531 147.842L190.858 144.825L191.058 144.635C191.986 143.759 192.566 142.831 192.783 141.875C192.818 141.723 192.845 141.569 192.872 141.413C192.981 140.793 193.115 140.022 193.712 139.221C194.046 138.774 194.928 137.766 195.839 138.118C196.085 138.21 196.251 138.37 196.366 138.538C196.395 138.509 196.425 138.48 196.456 138.448C196.85 138.066 197.125 137.926 197.39 137.791C197.593 137.687 197.804 137.581 198.16 137.296C198.316 137.171 198.441 137.059 198.546 136.964C198.866 136.679 199.274 136.345 199.834 136.477C200.428 136.64 200.631 137.206 200.766 137.58C201.007 138.249 201.081 138.708 201.13 139.013C201.148 139.125 201.169 139.25 201.184 139.291C201.314 139.618 202.945 139.703 203.558 139.738C204.937 139.813 206.13 139.878 206.417 140.822C206.623 141.498 206.194 142.234 205.105 143.07C204.766 143.33 204.427 143.51 204.131 143.644C204.313 143.816 204.458 144.049 204.467 144.368C204.487 145.121 203.714 145.699 202.17 146.089C201.786 146.187 201.27 146.316 200.595 146.284C200.277 146.268 199.998 146.219 199.761 146.174C199.726 146.309 199.661 146.45 199.544 146.583C199.2 146.976 198.645 147.076 197.892 146.855C197.06 146.623 196.403 146.308 195.824 146.031C195.317 145.79 194.88 145.583 194.514 145.527C193.833 145.432 193.197 145.852 192.437 146.412L190.531 147.842Z" fill="#F2F2F2"/>
<path d="M180.801 205.647L180.27 205.123L179.532 205.045C179.536 204.976 179.531 204.814 179.526 204.56C179.497 203.172 179.409 198.948 179.997 192.458C180.408 187.928 181.094 183.329 182.037 178.788C182.982 174.239 183.962 170.855 184.749 168.134C185.343 166.083 185.943 164.137 186.528 162.241C188.09 157.177 189.565 152.393 190.479 146.936C190.683 145.718 191.108 143.183 190.239 140.19C189.734 138.454 188.871 136.82 187.672 135.335L188.832 134.398C190.156 136.039 191.111 137.848 191.671 139.775C192.635 143.093 192.172 145.856 191.95 147.184C191.02 152.737 189.53 157.567 187.953 162.68C187.371 164.568 186.773 166.506 186.181 168.549C185.401 171.244 184.43 174.599 183.498 179.089C182.565 183.577 181.888 188.119 181.482 192.592C180.901 199.001 180.989 203.162 181.017 204.529C181.032 205.259 181.035 205.412 180.801 205.647Z" fill="#F2F2F2"/>
<path d="M184.485 137.052C184.425 137.039 184.365 137.024 184.305 137.006C183.081 136.663 182.099 135.665 181.385 134.041C181.051 133.277 180.972 132.473 180.815 130.87C180.791 130.623 180.682 129.372 180.816 127.715C180.903 126.632 181.019 126.197 181.314 125.855C181.641 125.475 182.082 125.257 182.548 125.147C182.561 125.004 182.608 124.864 182.701 124.731C183.084 124.179 183.726 124.406 184.074 124.524C184.249 124.587 184.468 124.667 184.714 124.708C185.1 124.775 185.331 124.707 185.68 124.606C186.015 124.509 186.43 124.388 187.004 124.399C188.138 124.414 188.977 124.924 189.254 125.091C190.711 125.967 191.214 127.364 191.796 128.981C191.911 129.305 192.295 130.477 192.385 131.986C192.449 133.074 192.307 133.52 192.143 133.838C191.809 134.494 191.297 134.797 190.028 135.436C188.701 136.105 188.036 136.44 187.49 136.613C186.22 137.011 185.423 137.262 184.485 137.052Z" fill="#F2F2F2"/>
<path d="M50.8076 130.9C49.8235 130.858 49.3974 133.174 48.5352 133.09C47.676 133.005 47.8 130.676 46.1955 128.254C45.9062 127.817 44.0827 125.065 42.7695 125.368C40.2805 125.943 41.8143 136.988 38.201 138.151C37.408 138.406 36.2829 138.212 33.7884 138.922C32.7961 139.205 32.283 139.433 32.1297 139.877C31.9121 140.506 32.6091 141.021 33.6562 142.531C35.2265 144.794 34.7619 145.225 36.1368 146.843C37.1575 148.045 37.9496 148.438 37.8042 148.975C37.5986 149.734 35.8796 149.437 35.482 150.31C35.0762 151.202 36.3203 152.711 37.3901 153.628C39.3976 155.35 41.3727 155.487 43.1882 156.033C45.1613 156.626 47.8683 157.978 50.7037 161.423L74.7643 192.914C69.9398 186.279 56.9608 167.713 52.3624 160.469C51.035 158.378 49.739 156.179 50.2548 153.734C50.7514 151.38 52.8676 149.081 54.2185 145.273C54.3762 144.829 54.7996 143.585 54.2596 143.042C53.8132 142.593 53.115 143.032 52.6919 142.619C52.1245 142.066 52.9202 140.826 53.1559 138.82C53.3222 137.406 53.1256 136.329 52.9564 135.403C52.9055 135.124 52.1175 130.955 50.8076 130.9Z" fill="#F2F2F2"/>
<path d="M38.8229 185.33C38.5187 185.801 39.5325 186.678 39.2421 187.077C38.9528 187.474 37.8455 186.742 36.1938 186.83C35.896 186.846 34.019 186.947 33.7888 187.679C33.3526 189.066 39.2163 191.501 38.7443 193.609C38.6407 194.072 38.221 194.569 37.85 195.998C37.7024 196.567 37.6661 196.884 37.8397 197.087C38.086 197.376 38.5399 197.182 39.5827 197.104C41.1466 196.986 41.2242 197.339 42.4152 197.131C43.2993 196.976 43.7209 196.701 43.9424 196.927C44.2558 197.247 43.614 198.005 43.9279 198.453C44.2483 198.909 45.3478 198.734 46.1067 198.473C47.531 197.985 48.1683 197.055 48.9599 196.321C49.8202 195.524 51.2651 194.586 53.774 194.188L76.172 191.465C71.5236 191.918 58.6666 192.932 53.7843 193.099C52.3749 193.147 50.9219 193.148 49.8707 192.19C48.8587 191.267 48.341 189.565 46.8618 187.803C46.689 187.597 46.2008 187.031 45.7785 187.139C45.4294 187.229 45.4434 187.698 45.1187 187.787C44.6832 187.905 44.3046 187.157 43.388 186.463C42.7417 185.973 42.1565 185.759 41.6532 185.575C41.5015 185.519 39.2279 184.703 38.8229 185.33Z" fill="#F2F2F2"/>
<path d="M47.0323 177.327L44.321 175.964L44.2136 175.71C43.7176 174.534 43.0512 173.666 42.2324 173.127C42.1022 173.042 41.9677 172.963 41.8307 172.882C41.2877 172.563 40.6126 172.167 40.0713 171.328C39.7702 170.859 39.1348 169.679 39.7837 168.949C39.9561 168.751 40.1634 168.652 40.362 168.603C40.3447 168.566 40.3277 168.528 40.3091 168.487C40.0888 167.985 40.0541 167.678 40.0206 167.382C39.9947 167.155 39.9684 166.921 39.8264 166.488C39.7642 166.298 39.7028 166.141 39.6513 166.01C39.496 165.61 39.3262 165.111 39.6463 164.633C40.006 164.134 40.6075 164.141 41.0058 164.146C41.7163 164.154 42.1729 164.246 42.4756 164.307C42.5862 164.329 42.7108 164.354 42.7544 164.354C43.1065 164.347 43.7569 162.849 44.005 162.287C44.5581 161.021 45.0367 159.926 46.0216 159.988C46.7265 160.032 47.2663 160.692 47.6676 162.005C47.7924 162.414 47.8417 162.794 47.8637 163.118C48.0883 163.008 48.3579 162.954 48.6592 163.057C49.3718 163.303 49.6426 164.229 49.4669 165.811C49.4243 166.205 49.3649 166.734 49.0977 167.355C48.9716 167.647 48.8284 167.891 48.7026 168.097C48.817 168.178 48.926 168.288 49.01 168.445C49.2581 168.904 49.1574 169.459 48.6859 170.087C48.1776 170.784 47.6523 171.29 47.1898 171.735C46.7864 172.125 46.4403 172.462 46.2591 172.785C45.9312 173.39 46.1027 174.133 46.3608 175.041L47.0323 177.327Z" fill="#F2F2F2"/>
<path d="M32.8416 166.214L32.2111 169.182L31.9925 169.351C30.9813 170.129 30.3103 170.993 29.9971 171.922C29.9472 172.07 29.905 172.22 29.8619 172.373C29.6911 172.979 29.479 173.732 28.8046 174.469C28.4274 174.879 27.4469 175.793 26.5767 175.35C26.3415 175.234 26.1926 175.059 26.0951 174.879C26.0633 174.905 26.0309 174.931 25.9962 174.96C25.5662 175.3 25.2782 175.411 25.0009 175.519C24.7877 175.601 24.5677 175.686 24.1848 175.933C24.0169 176.042 23.8811 176.141 23.7667 176.224C23.42 176.476 22.9796 176.767 22.436 176.578C21.8621 176.357 21.717 175.773 21.6206 175.387C21.4485 174.697 21.4211 174.232 21.4031 173.924C21.3968 173.812 21.3891 173.685 21.3778 173.643C21.2817 173.304 19.6682 173.054 19.0614 172.957C17.697 172.743 16.5164 172.558 16.3265 171.589C16.1901 170.897 16.6916 170.207 17.8597 169.486C18.2235 169.261 18.5791 169.117 18.8866 169.014C18.7232 168.824 18.6028 168.577 18.6262 168.26C18.6826 167.508 19.5099 167.011 21.0852 166.78C21.4768 166.721 22.0033 166.645 22.6717 166.745C22.9865 166.793 23.2587 166.87 23.4904 166.939C23.5394 166.808 23.6182 166.675 23.7482 166.554C24.1298 166.197 24.692 166.154 25.4189 166.451C26.2228 166.766 26.8445 167.146 27.3932 167.48C27.8726 167.771 28.2861 168.021 28.6449 168.114C29.3132 168.277 29.988 167.923 30.8012 167.443L32.8416 166.214Z" fill="#F2F2F2"/>
<path d="M24.5401 162.678L21.8288 161.316L21.7214 161.061C21.2254 159.886 20.559 159.017 19.7402 158.479C19.61 158.393 19.4755 158.314 19.3385 158.234C18.7955 157.915 18.1204 157.519 17.5791 156.68C17.278 156.211 16.6426 155.03 17.2915 154.301C17.4639 154.103 17.6712 154.003 17.8698 153.955C17.8525 153.917 17.8355 153.879 17.8169 153.838C17.5966 153.336 17.5619 153.029 17.5284 152.734C17.5026 152.507 17.4762 152.272 17.3343 151.839C17.272 151.649 17.2106 151.493 17.1591 151.361C17.0038 150.962 16.834 150.462 17.1541 149.984C17.5138 149.485 18.1153 149.493 18.5136 149.498C19.2241 149.506 19.6807 149.598 19.9835 149.658C20.094 149.681 20.2186 149.705 20.2622 149.705C20.6144 149.698 21.2648 148.201 21.5128 147.638C22.0659 146.373 22.5445 145.278 23.5294 145.34C24.2343 145.384 24.7741 146.044 25.1755 147.357C25.3002 147.765 25.3495 148.146 25.3715 148.47C25.5961 148.36 25.8658 148.306 26.167 148.409C26.8796 148.654 27.1505 149.58 26.9747 151.163C26.9321 151.557 26.8727 152.085 26.6055 152.706C26.4794 152.999 26.3362 153.242 26.2104 153.449C26.3248 153.53 26.4338 153.64 26.5179 153.796C26.7659 154.256 26.6652 154.81 26.1937 155.438C25.6854 156.136 25.1601 156.641 24.6976 157.087C24.2942 157.477 23.9481 157.814 23.767 158.137C23.439 158.742 23.6105 159.484 23.8687 160.393L24.5401 162.678Z" fill="#F2F2F2"/>
<path d="M75.2741 192.041L74.5973 192.354L74.2659 193.018C74.2022 192.99 74.0486 192.938 73.8094 192.854C72.4995 192.395 68.5123 190.998 62.6395 188.173C58.5399 186.202 54.4728 183.948 50.5492 181.474C46.6195 178.997 43.7928 176.893 41.5206 175.203C39.807 173.928 38.1943 172.684 36.6239 171.472C32.4276 168.235 28.4635 165.178 23.6724 162.411C22.6032 161.793 20.3769 160.507 17.2693 160.273C15.4669 160.137 13.6341 160.374 11.8231 160.977L11.3516 159.561C13.3522 158.896 15.3814 158.636 17.3826 158.786C20.8282 159.046 23.254 160.447 24.4195 161.12C29.2951 163.936 33.2972 167.023 37.5338 170.291C39.0989 171.499 40.7042 172.737 42.4109 174.007C44.662 175.681 47.4642 177.766 51.3435 180.212C55.22 182.657 59.2374 184.883 63.285 186.83C69.084 189.618 73.0121 190.994 74.3025 191.446C74.9913 191.688 75.1356 191.739 75.2741 192.041Z" fill="#F2F2F2"/>
<path d="M12.3169 164.562C12.2835 164.613 12.2486 164.664 12.2107 164.714C11.4604 165.741 10.1817 166.311 8.4105 166.41C7.57816 166.456 6.79765 166.248 5.24106 165.834C5.00087 165.77 3.79126 165.434 2.28568 164.728C1.30171 164.267 0.935024 164.006 0.718342 163.61C0.476549 163.17 0.426889 162.681 0.487642 162.206C0.357735 162.144 0.242832 162.051 0.150934 161.917C-0.2314 161.365 0.205684 160.843 0.438106 160.558C0.558555 160.416 0.710143 160.239 0.835057 160.024C1.03298 159.685 1.0502 159.445 1.07781 159.083C1.10399 158.736 1.13652 158.304 1.3473 157.77C1.75887 156.714 2.52986 156.106 2.78377 155.906C4.11417 154.848 5.59866 154.866 7.31743 154.887C7.66159 154.892 8.89359 154.943 10.3382 155.388C11.3805 155.709 11.7479 155.998 11.989 156.263C12.4855 156.805 12.5907 157.391 12.7444 158.804C12.9068 160.281 12.9874 161.021 12.9576 161.593C12.8862 162.922 12.8414 163.756 12.3169 164.562Z" fill="#F2F2F2"/>
<path d="M29.3789 207.198C29.3789 207.436 29.7137 207.628 30.1306 207.628H269.572C269.989 207.628 270.323 207.436 270.323 207.198C270.323 206.959 269.989 206.767 269.572 206.767H30.1306C29.7137 206.767 29.3789 206.959 29.3789 207.198Z" fill="#CCCCCC"/>
<path d="M119.102 65.923C125.484 65.923 130.658 60.7494 130.658 54.3675C130.658 47.9856 125.484 42.812 119.102 42.812C112.72 42.812 107.547 47.9856 107.547 54.3675C107.547 60.7494 112.72 65.923 119.102 65.923Z" fill="#FF6884"/>
<path d="M171.197 205.259C171.263 205.812 171.282 206.326 171.244 206.832H143.452C143.199 206.326 142.984 205.802 142.797 205.259C139.399 195.496 144.987 179.246 137.901 155.151C132.64 137.271 122.821 123.286 118.243 116.771C112.617 108.758 106.242 101.363 98.8567 89.5498C97.256 86.9943 95.6085 84.2235 93.9048 81.2C93.3338 80.189 86.7531 68.4599 87.3522 68.0948C87.6331 67.9263 89.3742 70.2946 89.9639 71.0903C95.1685 78.1296 98.1921 81.2093 102.526 86.2735C105.157 89.3439 108.264 93.135 112.627 98.9856C123.813 113.972 129.401 121.461 131.348 127.068C131.863 128.566 134.606 136.672 139.773 146.726C142.413 151.856 143.733 154.421 144.453 154.215C146.494 153.625 143.742 132.385 135.093 111.155C133.614 107.541 132.509 105.229 130.412 100.858C127.005 93.7248 108.03 54.0815 94.0827 30.3518C92.3322 27.3657 90.6567 24.6417 89.1121 22.2547C88.8125 21.8053 88.5224 21.3654 88.2415 20.9442C86.2945 18.0423 84.5721 15.7488 83.1399 14.2699C82.3816 13.4835 80.4533 11.2556 76.5873 6.78118C75.0521 5.0026 73.9288 3.68275 73.1705 2.71855C73.0582 2.57817 72.9552 2.43773 72.871 2.31604C71.9536 1.11788 71.6916 0.537454 71.9068 0.228588C72.2158 -0.211402 73.4045 0.041361 74.7057 0.500032C74.8462 0.546826 74.9959 0.602987 75.1363 0.659149C76.5498 1.18336 77.982 1.86673 78.4594 2.10076C82.8403 4.20695 87.1182 7.97934 91.0778 12.4632C92.5475 14.1201 93.961 15.8705 95.3277 17.6679C99.7273 23.4715 103.565 29.7901 106.467 34.9854C110.024 41.3882 112.159 46.0968 112.159 46.0968C122.09 68.0292 133.108 93.1163 133.688 92.901C134.325 92.667 122.109 61.4392 118.552 44.4773C117.363 38.7953 117.148 34.7139 118.711 33.9277C118.767 33.8995 118.823 33.8715 118.889 33.8528C119.132 33.7685 119.357 33.7779 119.479 33.7872C119.479 33.7872 120.93 33.6 122.455 33.9277C124.356 34.3395 126.518 39.6284 128.624 47.0515C134.1 66.1851 139.305 99.4536 139.305 99.4536C144.51 132.731 152.41 159.663 154.282 159.363C155.321 159.195 153.833 150.835 155.218 136.897C156.192 127.124 157.297 127.424 160.835 109.751C166.451 81.7148 169.26 67.7016 169.26 67.6267C169.232 67.037 169.157 65.8481 169.335 64.6125C169.522 63.2739 169.999 61.8698 171.132 61.0741C172.854 59.8572 175.625 60.3814 176.748 61.0741C177.647 61.6358 178.106 62.6655 178.209 64.1445C178.826 73.4492 165.459 100.427 160.835 136.897C158.532 155.066 157.268 164.98 160.835 178.085C164.364 191.078 170.514 199.353 171.197 205.259Z" fill="#CCCCCC"/>
<path d="M217.418 202.394L219.775 195.118L241.256 204.534L239.659 209.464L217.418 202.394Z" fill="#A0616A"/>
<path d="M234.587 201.235L234.755 204.145L236.255 204.723C236.255 204.723 234.289 204.646 232.668 207.7L233.972 208.646C233.972 208.646 234.915 210.44 237.575 211.228L244.792 213.093L245.674 210.658L241.023 208.403C241.023 208.403 240.192 207.315 246.559 206.264C246.559 206.264 248.709 205.8 248.986 199.895C249.024 199.084 248.547 198.324 247.786 198.04C247.366 197.883 246.916 197.896 246.574 198.366C245.704 199.563 245.645 201.04 244.246 201.488C242.847 201.936 234.587 201.235 234.587 201.235Z" fill="#2F2E41"/>
<path d="M204.227 218.381L207.124 211.303L227.836 222.308L225.873 227.104L204.227 218.381Z" fill="#A0616A"/>
<path d="M221.435 218.517L221.384 221.431L222.835 222.121C222.835 222.121 220.881 221.896 219.035 224.819L220.264 225.86C220.264 225.86 221.07 227.721 223.662 228.706L230.719 231.109L231.782 228.747L227.314 226.149C227.314 226.149 226.566 225.002 232.995 224.432C232.995 224.432 235.173 224.131 235.894 218.264C235.993 217.457 235.574 216.664 234.837 216.323C234.43 216.135 233.981 216.115 233.604 216.558C232.646 217.686 232.476 219.154 231.047 219.495C229.618 219.837 221.435 218.517 221.435 218.517Z" fill="#2F2E41"/>
<path d="M166.716 141.867C167.541 142.664 169.665 140.921 169.744 142.066C169.823 143.211 167.855 147.232 167.147 148.134C166.795 148.583 166.363 148.964 166.014 149.416C165.666 149.867 165.397 150.421 165.453 150.988C165.549 151.976 166.548 152.629 166.884 153.563C167.275 154.651 166.694 155.827 166.117 156.828C165.619 157.691 165.102 158.558 164.394 159.259C163.687 159.961 162.758 160.49 161.763 160.523C160.495 160.565 159.346 159.821 158.334 159.055C157.362 158.319 156.417 157.526 155.68 156.553C154.944 155.581 154.423 154.411 154.396 153.191C154.361 151.662 155.108 150.193 156.153 149.075C157.198 147.958 158.523 147.145 159.859 146.401C162.11 145.147 164.445 144.044 166.844 143.102" fill="#2F2E41"/>
<path d="M162.442 155.579C166.45 155.579 169.7 152.329 169.7 148.321C169.7 144.312 166.45 141.063 162.442 141.063C158.433 141.063 155.184 144.312 155.184 148.321C155.184 152.329 158.433 155.579 162.442 155.579Z" fill="#A0616A"/>
<path d="M173.06 168.865L180.6 181.747L194.715 189.207L191.048 192.612L177.327 187.436L167.824 175.232L168.594 169.294L173.06 168.865Z" fill="#A0616A"/>
<path d="M157.528 156.573L164.086 158.288L163.991 161.437L169.55 170.932C169.55 170.932 174.808 176.96 170.292 181.333L173.051 184.435L154.349 192.237L146.129 169.062L153.626 160.114L157.528 156.573Z" fill="#FF7686"/>
<path d="M162.82 162.122C162.82 162.122 166.779 157.604 169.852 161.779C172.925 165.955 174.456 170.719 174.456 170.719L167.204 174.178L162.82 162.122Z" fill="#FF7686"/>
<path d="M152.942 191.175C152.942 191.175 169.288 181.764 172.621 183.429L178.913 191.223L184.822 191.381L210.578 188.695L223.352 196.499L217.931 202.817L209.134 198.533L196.077 203.151C196.077 203.151 200.84 203.702 200.991 206.915L211.127 212.145L204.027 218.817L190.235 211.639C190.235 211.639 166.602 210.234 159.266 202.258C151.931 194.282 152.942 191.175 152.942 191.175Z" fill="#2F2E41"/>
<path d="M157.837 153.876L158.908 151.677C158.908 151.677 166.994 144.271 169.342 146.67L169.61 149.815C169.61 149.815 171.055 149.598 170.613 147.498C170.17 145.399 171.021 146.316 171.021 146.316C171.021 146.316 172.886 146.01 171.507 144.46C170.127 142.909 170.113 139.93 165.397 141.275C162.778 142.022 159.503 143.638 157.109 144.927C154.422 146.374 153.596 149.924 155.49 152.317C156.056 153.032 156.816 153.609 157.837 153.876Z" fill="#2F2E41"/>
<path d="M199.48 195.537C200.499 194.097 199.515 191.649 197.283 190.07C195.051 188.49 192.415 188.377 191.396 189.817C190.377 191.257 191.36 193.705 193.593 195.285C195.825 196.865 198.461 196.978 199.48 195.537Z" fill="#A0616A"/>
<path d="M183.879 156.177L184.602 158.348H183.879C183.879 158.348 184.783 163.233 181.889 163.956C178.994 164.68 176.323 160.067 176.323 160.067L175.014 160.7C175.014 160.7 176.1 166.127 172.12 166.851C168.14 167.575 166.692 162.871 166.692 162.871L157.285 163.595L157.647 160.7L166.17 161.552C166.17 161.552 165.969 159.253 171.034 158.891L178.271 157.444L183.879 156.177Z" fill="#2F2E41"/>
<path d="M153.756 167.586L153.527 171.493L166.092 167.44L166.197 171.403L151.194 181.93C151.194 181.93 146.832 175.74 146.317 173.598C145.801 171.456 146.07 168.154 146.07 168.154L153.756 167.586Z" fill="#A0616A"/>
<path d="M155.642 161.136C155.642 161.136 151.221 156.806 148.902 160.365C146.583 163.924 145.352 170.148 145.352 170.148L154.531 169.177L155.642 161.136Z" fill="#FF7686"/>
<path d="M151.651 157.248C152.679 160.014 152.761 163.122 151.882 165.939C153.976 165.525 155.728 163.951 156.683 162.043C157.638 160.134 157.867 157.928 157.691 155.801L157.685 155.737C157.408 152.542 159.23 149.528 162.221 148.369C164.238 147.587 166.112 146.434 167.703 144.967C168.6 144.138 169.469 143.032 169.275 141.826C169.097 140.714 168.085 139.952 167.123 139.367C164.927 138.032 162.501 136.965 159.938 136.776C157.374 136.587 154.652 137.377 152.92 139.277C151.189 141.176 150.706 144.26 152.155 146.383C151.513 146.42 150.93 146.937 150.819 147.57C150.707 148.203 151.077 148.889 151.667 149.144C151.27 149.025 150.895 149.491 150.94 149.903C150.985 150.316 151.293 150.645 151.594 150.93C152.023 151.336 152.504 151.769 152.318 152.49C152.243 152.779 152.067 153.032 151.837 153.223C151.281 153.685 150.556 153.768 149.859 153.843C151.096 154.588 151.851 156.065 151.731 157.504" fill="#2F2E41"/>
<path d="M169.025 170.362C170.947 168.417 171.488 165.835 170.233 164.595C168.978 163.355 166.402 163.926 164.48 165.871C162.558 167.817 162.017 170.399 163.272 171.639C164.527 172.879 167.103 172.307 169.025 170.362Z" fill="#A0616A"/>
<path d="M276.571 77.0393C275.529 77.6245 273.848 75.3098 273.468 76.442C273.087 77.5742 274.009 82.1426 274.485 83.2382C274.722 83.7828 275.056 84.2809 275.288 84.8274C275.52 85.374 275.645 86.0023 275.44 86.5595C275.083 87.5292 273.904 87.9236 273.32 88.7759C272.639 89.7685 272.914 91.1055 273.232 92.2661C273.507 93.2666 273.799 94.276 274.327 95.169C274.854 96.062 275.65 96.8396 276.645 97.135C277.911 97.5112 279.264 97.0642 280.484 96.5594C281.658 96.0742 282.818 95.5241 283.816 94.739C284.814 93.954 285.647 92.9119 285.996 91.691C286.434 90.1595 286.068 88.4835 285.31 87.0825C284.553 85.6815 283.432 84.5143 282.282 83.4123C280.345 81.5564 278.284 79.8303 276.116 78.2493" fill="#2F2E41"/>
<path d="M292.059 155.621L289.888 175.883C289.888 175.883 294.954 186.376 289.526 199.04L289.165 206.276L283.014 205.552L284.461 199.401L281.205 174.436L278.672 156.345L292.059 155.621Z" fill="#FFB6B6"/>
<path d="M274.694 155.26C274.694 155.26 276.141 171.18 273.247 179.501C273.247 179.501 274.694 192.165 270.714 205.552V215.519L264.201 214.236L264.563 176.969L262.754 156.707L274.694 155.26Z" fill="#FFB6B6"/>
<path d="M273.766 93.2945C275.6 95.605 278.834 96.2745 281.444 94.8992C285.169 92.9362 290.255 90.6863 291.154 92.4841C292.601 95.3786 292.601 98.1877 292.601 98.1877L294.049 131.922C294.049 131.922 294.772 145.543 285.727 144.341C276.681 143.139 262.57 148.204 262.57 148.204L264.012 133.259L267.86 127.625L269.42 111.459L266.731 98.4541L269.988 97.0068C269.988 97.0068 270.349 94.4741 271.435 94.4741C272.52 94.4741 272.782 92.041 273.737 93.2576L273.766 93.2945Z" fill="#FF7686"/>
<path d="M292.782 131.38L293.506 171.736C293.506 171.736 286.993 181.867 280.119 173.545L276.139 153.451L275.415 176.801C275.415 176.801 265.646 181.867 262.751 177.887L262.57 148.204L269.264 134.636L292.782 131.38Z" fill="#2F2E41"/>
<path d="M289.377 202.013C289.377 202.013 291.697 203.744 290.973 205.914C290.25 208.085 284.822 216.407 280.119 215.322C275.415 214.236 277.586 211.704 277.586 211.704L283.013 203.744C283.013 203.744 285.184 204.105 286.27 204.829C287.355 205.553 289.377 202.013 289.377 202.013Z" fill="#2F2E41"/>
<path d="M270.712 212.427C270.712 212.427 274.692 216.407 272.521 218.216C270.35 220.025 255.516 221.473 255.878 219.302C256.239 217.131 263.838 210.98 263.838 210.98C263.838 210.98 266.009 210.256 266.732 212.065C267.456 213.874 270.712 212.427 270.712 212.427Z" fill="#2F2E41"/>
<path d="M279.173 92.2214C283.347 92.2214 286.73 88.8384 286.73 84.6652C286.73 80.4919 283.347 77.1089 279.173 77.1089C275 77.1089 271.617 80.4919 271.617 84.6652C271.617 88.8384 275 92.2214 279.173 92.2214Z" fill="#FFB6B6"/>
<path d="M287.692 96.4992C285.929 99.015 285.027 102.123 285.17 105.193C283.17 104.224 281.821 102.177 281.361 100.003C280.902 97.8296 281.253 95.547 281.991 93.4513C281.998 93.4303 282.005 93.4094 282.013 93.3884C283.134 90.2428 282.092 86.7271 279.385 84.7717C277.559 83.4527 275.976 81.798 274.76 79.9012C274.074 78.8304 273.491 77.4871 274.004 76.3232C274.476 75.2507 275.696 74.7494 276.819 74.414C279.383 73.6481 282.107 73.2123 284.739 73.697C287.371 74.1816 289.904 75.695 291.148 78.0644C292.392 80.4337 292.066 83.6673 290.047 85.4238C290.684 85.6296 291.135 86.3045 291.08 86.9715C291.026 87.6385 290.473 88.232 289.811 88.3326C290.243 88.3173 290.498 88.8858 290.344 89.2894C290.19 89.6929 289.793 89.9436 289.414 90.1513C288.875 90.4472 288.277 90.7566 288.275 91.5314C288.274 91.842 288.385 92.1435 288.566 92.396C289.004 93.0079 289.712 93.2835 290.394 93.5422C288.952 93.9669 287.802 95.2556 287.544 96.7364" fill="#2F2E41"/>
<path d="M285.477 139.006C283.816 140.239 281.834 140.382 281.05 139.325C280.265 138.268 280.976 136.412 282.637 135.179C283.293 134.678 284.061 134.341 284.874 134.196L291.975 129.061L294.314 132.445L287.065 137.148C286.692 137.885 286.147 138.522 285.477 139.006Z" fill="#FFB6B6"/>
<path d="M289.951 97.1877C289.951 97.1877 295.679 97.3687 296.765 101.349C297.85 105.329 300.021 113.812 299.659 125.591C299.659 125.591 301.468 133.189 296.765 132.827L290.252 135.721L285.91 129.932L289.528 125.591L289.951 97.1877Z" fill="#FF7686"/>
<path d="M125.028 225.447L119.613 213.738L113.605 216.759L116.981 227.342L123.006 230.285L125.028 225.447Z" fill="#FFB6B6"/>
<path d="M82.2877 191.945C82.77 192.162 84.2372 193.038 86.0411 192.743C87.2722 192.541 88.0991 191.885 88.3726 191.681C91.7647 189.14 102.099 186.966 109.839 189.349C111.591 189.889 112.657 190.492 113.5 191.396C114.694 192.679 114.892 193.98 115.843 197.202C116.363 198.964 117.02 200.683 117.556 202.441C120.692 212.73 122.75 214.18 121.59 216.711C120.303 219.52 116.2 221.164 114.233 220.109C113.428 219.678 113.308 218.969 112.595 217.367C110.505 212.671 108.895 212.831 107.474 209.298C105.815 205.173 107.101 202.696 105.69 202.082C104.382 201.514 103.024 203.535 99.1138 205.473C97.3246 206.36 96.1718 206.649 92.63 207.614C78.8376 211.372 78.4697 211.849 76.0184 211.67C74.9459 211.591 67.3339 211.035 65.9349 207.132C63.7457 201.025 77.9414 189.986 82.2877 191.945Z" fill="#2F2E41"/>
<path d="M121.732 226.492C122.457 226.432 123.304 226.363 123.806 225.692C124.146 225.238 124.278 224.576 124.103 224.024C123.901 223.388 123.363 223.123 123.417 223.042C123.5 222.919 124.809 223.442 126.084 224.474C126.325 224.669 127.41 225.566 128.556 227.365C129.475 228.807 129.234 228.945 129.827 229.799C131.65 232.42 134.433 231.849 135.173 233.964C135.458 234.78 135.356 235.758 134.883 236.412C133.933 237.723 131.656 237.483 130.417 237.337C127.434 236.985 125.525 235.733 123.472 234.592C116.492 230.711 111.918 230.372 111.969 228.455C111.979 228.092 112.141 228.18 113.559 225.995C114.96 223.838 115.17 223.184 115.718 223.165C116.543 223.138 116.572 224.603 118.239 225.691C119.717 226.656 121.263 226.53 121.732 226.492Z" fill="#2F2E41"/>
<path d="M100.563 248.547L102.657 235.818L95.9893 234.945L92.8398 245.597L96.1724 251.415L100.563 248.547Z" fill="#FFB6B6"/>
<path d="M83.2879 196.827C83.565 197.278 84.2871 198.826 85.9457 199.595C87.0776 200.119 88.1301 200.041 88.4713 200.025C92.7047 199.828 102.477 203.832 107.543 210.15C108.69 211.581 109.233 212.678 109.422 213.9C109.69 215.632 109.123 216.819 108.101 220.019C107.542 221.769 107.12 223.561 106.577 225.316C103.394 235.591 104.282 237.946 101.901 239.39C99.2593 240.991 94.9412 240.047 93.906 238.07C93.4821 237.261 93.7809 236.607 94.0904 234.881C94.9979 229.821 93.5756 229.05 94.3839 225.328C95.3275 220.983 97.7828 219.656 96.9598 218.356C96.1965 217.151 93.9382 218.061 89.6142 217.469C87.6357 217.198 86.5194 216.79 83.0469 215.6C69.5243 210.964 68.9519 211.152 67.0242 209.628C66.1808 208.961 59.9947 204.169 61.2285 200.211C66.8872 182.058 80.7915 192.765 83.2879 196.827Z" fill="#2F2E41"/>
<path d="M96.5257 247.562C97.1583 247.92 97.8979 248.338 98.6906 248.065C99.2269 247.88 99.7074 247.406 99.8726 246.852C100.063 246.212 99.7668 245.691 99.857 245.654C99.9943 245.599 100.784 246.767 101.259 248.337C101.349 248.633 101.743 249.984 101.682 252.117C101.632 253.825 101.355 253.804 101.367 254.844C101.403 258.037 104.026 259.127 103.451 261.292C103.229 262.128 102.595 262.881 101.837 263.155C100.314 263.707 98.5648 262.23 97.6217 261.413C95.3505 259.447 94.474 257.339 93.4166 255.242C89.8205 248.111 86.2256 245.262 87.3446 243.704C87.5564 243.409 87.6406 243.574 90.0418 242.562C92.4118 241.563 92.9535 241.14 93.4172 241.433C94.1152 241.873 93.316 243.101 94.0845 244.938C94.7654 246.567 96.1158 247.33 96.5257 247.562Z" fill="#2F2E41"/>
<path d="M77.045 136.277L86.3464 135.613L89.2254 140.263L97.8624 142.699L94.6512 165.178L97.0356 189.103C97.0356 189.103 85.682 196.957 84.7961 200.501C83.9103 204.044 62.207 196.957 62.207 196.957L69.626 174.036L68.9616 156.098L66.9685 145.689L76.0484 141.481L77.045 136.277Z" fill="#3F3D56"/>
<path d="M72.8395 142.921C72.8395 142.921 65.4275 142.81 64.4274 145.911C63.4273 149.011 60.1054 170.493 60.1054 170.493L57.5586 179.905L68.9639 174.258L66.5278 170.499L74.5004 155.212L72.8395 142.921Z" fill="#3F3D56"/>
<path d="M77.3728 177.358C78.5983 177.36 79.7377 176.653 80.2141 175.524C80.5745 174.67 80.5405 173.851 80.2709 173.148C80.3576 173.113 80.4437 173.075 80.5325 173.043C80.402 172.99 80.2752 172.931 80.1484 172.871C79.7069 171.991 78.8605 171.352 77.8525 171.197C76.6037 169.86 75.8362 168.067 75.8282 166.095C75.8117 162.03 79.1095 158.634 83.1737 158.536C83.2057 158.535 83.2377 158.535 83.2696 158.534C85.0895 158.514 86.7404 159.532 87.6625 161.101C88.2005 162.016 89.1948 162.631 90.3339 162.631C91.2059 162.631 91.9926 162.271 92.555 161.691C93.7802 160.427 95.3143 159.487 97.0505 159.198C98.1907 159.009 99.3708 158.938 100.578 158.998C108.843 159.408 115.954 166.734 116.13 175.007C116.327 184.222 108.916 191.753 99.746 191.753C94.9745 191.753 90.6814 189.713 87.6873 186.458C86.3581 185.013 84.4954 184.203 82.532 184.223C82.512 184.223 82.492 184.224 82.472 184.224C79.2919 184.224 76.714 181.646 76.714 178.466C76.714 178.289 76.7227 178.115 76.7392 177.943C76.7699 177.621 77.0497 177.358 77.3728 177.358Z" fill="#FF7686"/>
<path d="M104.619 172.486L49.4754 162.077L49.2539 166.064L103.955 179.13L104.619 172.486Z" fill="#FF7686"/>
<path d="M50.1392 162.742L49.4748 162.077C49.4748 162.077 46.5958 160.748 46.5958 160.527C46.5958 160.388 42.3445 158.948 39.1638 157.89C37.3874 157.299 35.5114 158.469 35.2585 160.324L34.8599 163.247C34.6216 164.994 35.9403 166.567 37.7028 166.638L45.4885 166.949L49.2533 166.064L50.1392 162.742Z" fill="#FF7686"/>
<path d="M104.507 173.704L104.639 173.152L49.4595 162.603L49.3633 163.295L104.507 173.704Z" fill="#3F3D56"/>
<path d="M104.381 174.752L104.507 174.147L49.3995 163.695L49.3633 164.403L104.381 174.752Z" fill="#3F3D56"/>
<path d="M104.254 176.007L104.285 175.033L49.3555 164.49L49.3625 165.067L104.254 176.007Z" fill="#3F3D56"/>
<path d="M104.109 177.465L104.066 176.583L49.2776 165.285L49.2305 165.501L104.109 177.465Z" fill="#3F3D56"/>
<path d="M104.105 178.349L104.064 177.69L49.3577 165.651L49.3086 165.866L104.105 178.349Z" fill="#3F3D56"/>
<path d="M72.4195 141.509L75.1634 139.99L76.3535 164.292L75.9385 167.282C75.9385 167.282 69.0113 148.18 72.4195 141.509Z" fill="#3F3D56"/>
<path d="M82.5333 133.952C86.3249 133.952 89.3986 130.878 89.3986 127.086C89.3986 123.295 86.3249 120.221 82.5333 120.221C78.7417 120.221 75.668 123.295 75.668 127.086C75.668 130.878 78.7417 133.952 82.5333 133.952Z" fill="#FFB6B6"/>
<path d="M75.9402 131.183L77.5815 132.494L75.7187 125.425C75.7187 125.425 80.9231 125.315 81.366 122.436C81.366 122.436 85.463 122.325 86.5704 122.325C87.6777 122.325 88.1773 129.652 88.1773 129.652C88.1773 129.652 90.3352 123.654 88.1206 120.553C85.906 117.453 86.6811 119.335 86.2382 118.228C85.7952 117.121 81.2553 116.102 78.3763 117.231C75.4973 118.36 75.3865 119.97 74.5007 119.985C73.6148 120 70.5144 124.429 73.3934 127.972C76.2724 131.516 75.9402 131.183 75.9402 131.183Z" fill="#2F2E41"/>
<path d="M97.6372 176.235C98.451 175.586 99.0506 174.807 99.3885 174.036L107.531 168.341L104.708 164.545L96.7517 170.732C95.9257 170.89 95.0328 171.302 94.2191 171.951C92.3601 173.434 91.6183 175.596 92.5622 176.779C93.5061 177.962 95.7783 177.718 97.6372 176.235Z" fill="#FFB6B6"/>
<path d="M66.4429 167.572C65.8391 168.42 65.4769 169.334 65.3638 170.167L59.1016 177.882L62.86 180.755L68.8077 172.619C69.5583 172.24 70.3036 171.598 70.9074 170.75C72.2868 168.813 72.4055 166.531 71.1727 165.653C69.9398 164.775 67.8222 165.634 66.4429 167.572Z" fill="#FFB6B6"/>
<path d="M94.3219 144.139C94.3219 144.139 96.3151 140.817 98.3082 142.81C99.8854 144.387 108.535 154.423 112.076 158.544C113.053 159.68 113.589 161.128 113.589 162.626C113.589 164.944 112.31 167.072 110.263 168.159L99.1941 174.036L96.0936 169.386L105.616 162.52L91 154.548L94.3219 144.139Z" fill="#3F3D56"/>
<path d="M59.3216 174.752L57.5586 179.905L62.6522 182.563L66.5278 179.905L68.9639 174.258L61.7664 172.154" fill="#3F3D56"/>
<path d="M255.47 93.576C255.263 91.4126 256.212 89.5526 257.589 89.4216C258.966 89.2906 260.249 90.9381 260.455 93.1023C260.549 93.9657 260.435 94.8391 260.123 95.6494L260.881 104.827L256.566 105.091L256.277 96.0153C255.817 95.2784 255.54 94.442 255.47 93.576Z" fill="#FFB6B6"/>
<path d="M278.973 97.9298C278.973 97.9298 271.924 93.7837 270.473 94.4056C269.022 95.0275 261.974 105.6 261.974 105.6L261.326 103.671L256.376 104.149C256.376 104.149 253.474 117.624 259.901 116.38C266.327 115.136 276.9 103.527 276.9 103.527L278.973 97.9298Z" fill="#FF7686"/>
<path d="M245.303 99.4431L255.047 97.1777L255.746 99.202L260.46 97.9287L263.569 97.0885L266.589 91.222L264.446 85.0117L258.066 84.9519L256.115 85.3355L250.673 86.406C250.212 87.1681 250.464 88.1599 251.232 88.61L251.484 88.7577L243.828 90.0835C243.828 90.0835 241.382 94.4361 245.303 99.4431Z" fill="#3F3D56"/>
<path d="M256.113 85.3355L260.458 97.9287L263.567 97.0885L266.587 91.222L264.445 85.0117L258.064 84.9519L256.113 85.3355Z" fill="#2F2E41"/>
<path d="M254.468 85.8604C255.138 85.7119 255.622 85.3197 255.548 84.9844C255.473 84.649 254.87 84.4975 254.199 84.646C253.528 84.7944 253.045 85.1867 253.119 85.522C253.193 85.8574 253.797 86.0089 254.468 85.8604Z" fill="#3F3D56"/>
</g>
<defs>
<clipPath id="clip0_123_7051">
<rect width="300" height="263.276" fill="white"/>
</clipPath>
</defs>
</svg>
